<svg width="15" height="10" viewBox="0 0 15 10" fill="none" xmlns="http://www.w3.org/2000/svg">
<path d="M14.7602 1.59301L14.2689 1.13611C14.1143 0.993419 13.9085 0.914811 13.6886 0.914811C13.4689 0.914811 13.2629 0.993419 13.1083 1.13611L7.50335 6.31233L1.89197 1.13036C1.73758 0.987676 1.5316 0.90918 1.31184 0.90918C1.09208 0.90918 0.885983 0.987676 0.731469 1.13036L0.240002 1.58445C-0.0800006 1.87974 -0.0800006 2.36073 0.240002 2.65602L6.92103 8.84796C7.07542 8.99054 7.28116 9.09099 7.50287 9.09099H7.50543C7.72531 9.09099 7.93104 8.99042 8.08543 8.84796L14.7602 2.6728C14.9149 2.53023 14.9998 2.33449 15 2.13155C15 1.9285 14.9149 1.73547 14.7602 1.59301Z" fill="currentColor"/>
</svg>
