<svg width="7" height="10" viewBox="0 0 7 10" fill="none" xmlns="http://www.w3.org/2000/svg">
<path d="M5.95946 9.84016L6.2893 9.5126C6.39231 9.40951 6.44906 9.27235 6.44906 9.12577C6.44906 8.97926 6.39231 8.84194 6.2893 8.73885L2.55252 5.00224L6.29345 1.26131C6.39646 1.15838 6.45312 1.02107 6.45312 0.87456C6.45312 0.728055 6.39646 0.590655 6.29345 0.487646L5.96564 0.160001C5.75247 -0.0533338 5.40523 -0.0533338 5.19206 0.160001L0.722022 4.61402C0.619094 4.71695 0.546573 4.8541 0.546573 5.00191V5.00362C0.546573 5.1502 0.619175 5.28736 0.722022 5.39029L5.17994 9.84016C5.28287 9.94325 5.42417 9.99984 5.57068 10C5.71727 10 5.85662 9.94325 5.95946 9.84016Z" fill="#19191A"/>
</svg>
