<svg width="49" height="24" viewBox="0 0 49 24" fill="none" xmlns="http://www.w3.org/2000/svg">
<path d="M25.743 15.5123L28.6408 9.41391H30.1546L33.0698 15.5123H31.2013L30.4747 13.8601L31.1754 14.3791H27.6374L28.3294 13.8601L27.6028 15.5123H25.743ZM29.3934 11.317L28.5024 13.4536L28.2429 12.9692H30.5698L30.3363 13.4536L29.4367 11.317H29.3934ZM33.954 15.5123V10.919H32.1893V9.41391H37.5871V10.919H35.8224V15.5123H33.954ZM38.2223 15.5123V9.41391H39.8486L41.6997 13.5574H41.4056L43.2568 9.41391H44.883V15.5123H43.1962V12.2166H43.6114L42.0544 15.5123H41.025L39.468 12.2166H39.9091V15.5123H38.2223Z" fill="#DA6D30"/>
<path d="M21.75 5.125H5.25C4.88533 5.125 4.53559 5.26987 4.27773 5.52773C4.01987 5.78559 3.875 6.13533 3.875 6.5V9.32734V17.4914C3.875 17.8561 4.01987 18.2058 4.27773 18.4637C4.53559 18.7215 4.88533 18.8664 5.25 18.8664H21.75C22.1147 18.8664 22.4644 18.7215 22.7223 18.4637C22.9801 18.2058 23.125 17.8561 23.125 17.4914V6.5C23.125 6.13533 22.9801 5.78559 22.7223 5.52773C22.4644 5.26987 22.1147 5.125 21.75 5.125ZM14.1875 16.125H12.8125C12.6302 16.125 12.4553 16.0526 12.3264 15.9236C12.1974 15.7947 12.125 15.6198 12.125 15.4375C12.125 15.2552 12.1974 15.0803 12.3264 14.9514C12.4553 14.8224 12.6302 14.75 12.8125 14.75H14.1875C14.3698 14.75 14.5447 14.8224 14.6736 14.9514C14.8026 15.0803 14.875 15.2552 14.875 15.4375C14.875 15.6198 14.8026 15.7947 14.6736 15.9236C14.5447 16.0526 14.3698 16.125 14.1875 16.125ZM19.6875 16.125H16.9375C16.7552 16.125 16.5803 16.0526 16.4514 15.9236C16.3224 15.7947 16.25 15.6198 16.25 15.4375C16.25 15.2552 16.3224 15.0803 16.4514 14.9514C16.5803 14.8224 16.7552 14.75 16.9375 14.75H19.6875C19.8698 14.75 20.0447 14.8224 20.1736 14.9514C20.3026 15.0803 20.375 15.2552 20.375 15.4375C20.375 15.6198 20.3026 15.7947 20.1736 15.9236C20.0447 16.0526 19.8698 16.125 19.6875 16.125ZM5.25 8.63984V6.5H21.75V8.63984H5.25Z" fill="#DA6D30"/>
<rect x="0.886719" y="0.5" width="47" height="23" rx="1.5" stroke="#DA6D30"/>
</svg>
