<svg width="30" height="30" viewBox="0 0 30 30" fill="none" xmlns="http://www.w3.org/2000/svg">
<rect width="30" height="30" rx="15" fill="#D8DCE7"/>
<path d="M14.5705 10.0383L16.4851 8.12304C16.8802 7.7275 17.3492 7.4137 17.8655 7.19956C18.3818 6.98542 18.9352 6.87513 19.4942 6.875C20.0531 6.87487 20.6066 6.9849 21.123 7.1988C21.6394 7.4127 22.1086 7.72629 22.5038 8.12164C22.899 8.51699 23.2125 8.98635 23.4263 9.50293C23.6401 10.0195 23.7501 10.5732 23.75 11.1323C23.7499 11.6914 23.6396 12.245 23.4256 12.7615C23.2115 13.2779 22.8978 13.7472 22.5024 14.1423L19.7673 16.8784C19.3722 17.2736 18.9031 17.5871 18.3869 17.801C17.8707 18.0149 17.3174 18.125 16.7586 18.125C16.1999 18.125 15.6466 18.0149 15.1304 17.801C14.6141 17.5871 14.1451 17.2736 13.75 16.8784" stroke="#545866" stroke-width="1.6" stroke-linecap="round" stroke-linejoin="round"/>
<path d="M15.4295 19.9617L13.5149 21.877C13.1198 22.2725 12.6508 22.5863 12.1345 22.8004C11.6182 23.0146 11.0648 23.1249 10.5058 23.125C9.94692 23.1251 9.39345 23.0151 8.87705 22.8012C8.36064 22.5873 7.89143 22.2737 7.49622 21.8784C7.101 21.483 6.78752 21.0136 6.57369 20.4971C6.35986 19.9805 6.24987 19.4268 6.25 18.8677C6.25013 18.3086 6.36038 17.755 6.57445 17.2385C6.78852 16.7221 7.10222 16.2528 7.49762 15.8577L10.2327 13.1216C10.6278 12.7264 11.0969 12.4129 11.6131 12.199C12.1293 11.9851 12.6826 11.875 13.2414 11.875C13.8001 11.875 14.3534 11.9851 14.8696 12.199C15.3858 12.4129 15.8549 12.7264 16.25 13.1216" stroke="#545866" stroke-width="1.6" stroke-linecap="round" stroke-linejoin="round"/>
</svg>
