<svg width="40" height="40" viewBox="0 0 40 40" fill="none" xmlns="http://www.w3.org/2000/svg">
<path d="M32.5367 14.8105H28.5829C28.3016 14.8105 28.0565 14.6246 27.9793 14.3543C26.9153 10.6213 23.6805 5 20.0999 5C16.4865 5 13.0828 10.631 12.0199 14.3543C11.9429 14.6246 11.6976 14.8105 11.4164 14.8105H7.66276C7.115 14.8105 6.66699 15.2585 6.66699 15.8063L8.42345 32.776C8.42345 33.3238 8.87144 33.7718 9.41922 33.7718H30.7804C31.3281 33.7718 31.7761 33.3238 31.7761 32.776L33.5326 15.8063C33.5326 15.2585 33.0846 14.8105 32.5366 14.8105H32.5367ZM13.5475 19.5947C12.6352 19.7679 11.8502 18.9827 12.0229 18.0701C12.1196 17.5603 12.5305 17.1496 13.0401 17.0529C13.9524 16.8802 14.7375 17.665 14.5647 18.5771C14.4685 19.0869 14.0573 19.498 13.5475 19.5947ZM15.5667 14.8105C15.1511 14.8105 14.8466 14.4134 14.9609 14.0137C16.0428 10.2271 18.1812 6.40511 20.0995 6.40511C22.0179 6.40511 24.1562 10.2268 25.2381 14.0131C25.3524 14.4129 25.048 14.81 24.6323 14.81H15.5666L15.5667 14.8105ZM27.2753 19.5947C26.363 19.7675 25.578 18.9827 25.7507 18.0701C25.8474 17.5603 26.2585 17.1496 26.7679 17.0529C27.6802 16.8802 28.4652 17.665 28.2925 18.5775C28.1961 19.0869 27.7851 19.498 27.2753 19.5947Z" fill="#39393A"/>
</svg>
