<svg width="26" height="26" viewBox="0 0 26 26" fill="none" xmlns="http://www.w3.org/2000/svg">
<path d="M21.1487 9.62685H18.5787C18.3959 9.62685 18.2366 9.50599 18.1864 9.33029C17.4948 6.90382 15.3921 3.25 13.0648 3.25C10.7161 3.25 8.50363 6.91017 7.81277 9.33029C7.76271 9.50599 7.60326 9.62685 7.42047 9.62685H4.98063C4.62458 9.62685 4.33337 9.91804 4.33337 10.2741L5.47507 21.3044C5.47507 21.6605 5.76626 21.9517 6.12232 21.9517H20.0071C20.3631 21.9517 20.6543 21.6605 20.6543 21.3044L21.796 10.2741C21.796 9.91805 21.5048 9.62685 21.1486 9.62685H21.1487ZM8.80571 12.7366C8.21272 12.8491 7.70245 12.3387 7.81474 11.7456C7.87756 11.4142 8.14467 11.1473 8.47592 11.0844C9.0689 10.9721 9.57917 11.4822 9.46689 12.0751C9.40436 12.4065 9.1371 12.6737 8.80571 12.7366ZM10.1182 9.62685C9.84803 9.62685 9.65012 9.36874 9.7244 9.10889C10.4277 6.64758 11.8176 4.16332 13.0645 4.16332C14.3114 4.16332 15.7014 6.6474 16.4046 9.10852C16.4789 9.36838 16.281 9.62648 16.0108 9.62648H10.1181L10.1182 9.62685ZM17.7288 12.7366C17.1358 12.8489 16.6255 12.3387 16.7378 11.7456C16.8006 11.4142 17.0679 11.1473 17.399 11.0844C17.992 10.9721 18.5022 11.4822 18.3899 12.0754C18.3273 12.4065 18.0602 12.6737 17.7288 12.7366Z" fill="#39393A"/>
</svg>
