<svg width="25" height="24" viewBox="0 0 25 24" fill="none" xmlns="http://www.w3.org/2000/svg">
<path d="M20.42 5.76005H19.0334V5.06672C19.0334 3.1531 17.4804 1.60009 15.5667 1.60009C15.0744 1.60009 14.603 1.70409 14.1801 1.89135C13.7571 1.70409 13.2857 1.60009 12.7934 1.60009C10.8798 1.60009 9.32679 3.1531 9.32679 5.06672V5.76005H7.94014C6.79615 5.76005 5.86016 6.69604 5.86016 7.84003V10.2874C3.44049 11.1403 1.7002 13.449 1.7002 16.1601C1.7002 19.599 4.5012 22.4 7.94014 22.4H20.42C21.564 22.4 22.5 21.464 22.5 20.32V7.84015C22.5 6.69616 21.564 5.76017 20.42 5.76017V5.76005ZM15.5667 2.98674C16.7107 2.98674 17.6467 3.92273 17.6467 5.06672V5.76005H16.2601V5.06672C16.2601 4.28334 15.9897 3.5691 15.5528 2.98674H15.5667H15.5667ZM13.4868 5.06672C13.4868 4.45667 13.7571 3.90879 14.1801 3.52746C14.603 3.90879 14.8734 4.45648 14.8734 5.06672V5.76005H13.4868V5.06672ZM10.7134 5.06672C10.7134 3.92273 11.6494 2.98674 12.7934 2.98674H12.8074C12.3705 3.5691 12.1001 4.28334 12.1001 5.06672V5.76005H10.7134L10.7134 5.06672ZM7.94014 21.0132C5.26386 21.0132 3.08685 18.8362 3.08685 16.1599C3.08685 13.4837 5.26386 11.3067 7.94014 11.3067C10.6164 11.3067 12.7934 13.4837 12.7934 16.1599C12.7934 18.8362 10.6164 21.0132 7.94014 21.0132ZM18.34 20.3199C18.34 20.7012 18.028 21.0132 17.6467 21.0132H11.8505C13.2718 19.8692 14.1801 18.122 14.1801 16.1599C14.1801 12.721 11.3791 9.92001 7.94018 9.92001C7.70448 9.92001 7.47557 9.93394 7.24685 9.96164V7.84002C7.24685 7.45869 7.55885 7.1467 7.94018 7.1467H9.32683V7.84002C9.32683 8.22135 9.63883 8.53335 10.0202 8.53335C10.4015 8.53335 10.7135 8.22135 10.7135 7.84002V7.1467H14.8734V7.84002C14.8734 8.22135 15.1854 8.53335 15.5668 8.53335C15.9481 8.53335 16.2601 8.22135 16.2601 7.84002V7.1467H17.6468C18.0281 7.1467 18.3401 7.45869 18.3401 7.84002L18.34 20.3199Z" fill="#EEB600"/>
<path d="M11.372 15.2864C11.2887 15.0368 11.0739 14.8565 10.8173 14.8218L9.27126 14.5861L8.57096 13.0955C8.45303 12.846 8.21037 12.6934 7.94 12.6934C7.66962 12.6934 7.42698 12.846 7.30903 13.0955L6.60873 14.5861L5.06269 14.8218C4.8061 14.8565 4.59131 15.0368 4.50803 15.2864C4.42477 15.5291 4.48729 15.8064 4.66743 15.9867L5.81142 17.1584L5.54105 18.8224C5.49942 19.0858 5.61039 19.3494 5.82535 19.5018C6.04728 19.6544 6.3314 19.6682 6.56032 19.5434L7.94 18.7808L9.31968 19.5434C9.42368 19.5988 9.54161 19.6267 9.65241 19.6267C9.79108 19.6267 9.93671 19.585 10.0545 19.5019C10.2694 19.3493 10.3804 19.0859 10.3388 18.8226L10.0684 17.1586L11.2124 15.9869C11.3927 15.8064 11.4552 15.5291 11.3719 15.2864H11.372Z" fill="#EEB600"/>
</svg>
