<svg width="720" height="130" viewBox="0 0 720 130" fill="none" xmlns="http://www.w3.org/2000/svg">
<path d="M0.673038 104V26.8773H21.2391L44.6495 79.2771H40.9301L64.3404 26.8773H84.9065V104H63.5746V62.321H68.8255L49.1346 104H36.1167L16.4258 62.321H22.0049V104H0.673038ZM144.264 105.313C132.376 105.313 123.443 102.432 117.462 96.6707C111.482 90.8364 108.492 82.0848 108.492 70.4161V26.8773H132.121V70.7443C132.121 75.6306 133.069 79.35 134.965 81.9025C136.934 84.455 140.034 85.7313 144.264 85.7313C148.494 85.7313 151.557 84.455 153.453 81.9025C155.422 79.35 156.407 75.6306 156.407 70.7443V26.8773H179.598V70.4161C179.598 82.0848 176.681 90.8364 170.847 96.6707C165.085 102.432 156.224 105.313 144.264 105.313ZM200.8 65.384C200.8 57.4347 202.405 50.47 205.613 44.4898C208.895 38.5095 213.526 33.8785 219.506 30.5967C225.487 27.242 232.561 25.5646 240.729 25.5646C248.97 25.5646 256.081 27.242 262.061 30.5967C268.041 33.8785 272.672 38.5095 275.954 44.4898C279.236 50.47 280.877 57.4347 280.877 65.384C280.877 73.3333 279.236 80.2981 275.954 86.2783C272.672 92.2585 268.041 96.926 262.061 100.281C256.081 103.635 248.97 105.313 240.729 105.313C232.561 105.313 225.487 103.635 219.506 100.281C213.526 96.926 208.895 92.2585 205.613 86.2783C202.405 80.2251 200.8 73.2604 200.8 65.384ZM225.523 65.384C225.523 71.8018 226.726 76.7975 229.133 80.371C231.613 83.9445 235.478 85.7313 240.729 85.7313C245.98 85.7313 249.845 83.9445 252.325 80.371C254.877 76.7245 256.153 71.7289 256.153 65.384C256.153 59.0392 254.877 54.08 252.325 50.5064C249.845 46.9329 245.98 45.1461 240.729 45.1461C235.478 45.1461 231.613 46.9329 229.133 50.5064C226.726 54.007 225.523 58.9662 225.523 65.384ZM230.993 129.817V111.33H250.684V129.817H230.993ZM217.756 20.3137L231.759 0.950916H249.918L263.92 20.3137H248.824L240.838 11.9997L232.853 20.3137H217.756ZM302.696 104V26.8773H326.325V104H302.696ZM393.808 104V26.8773H414.374L437.784 79.2771H434.065L457.475 26.8773H478.041V104H456.71V62.321H461.96L442.269 104H429.252L409.561 62.321H415.14V104H393.808ZM537.399 105.313C525.511 105.313 516.577 102.432 510.597 96.6707C504.617 90.8364 501.627 82.0848 501.627 70.4161V26.8773H525.256V70.7443C525.256 75.6306 526.204 79.35 528.1 81.9025C530.069 84.455 533.169 85.7313 537.399 85.7313C541.629 85.7313 544.692 84.455 546.588 81.9025C548.557 79.35 549.542 75.6306 549.542 70.7443V26.8773H572.733V70.4161C572.733 82.0848 569.816 90.8364 563.982 96.6707C558.22 102.432 549.359 105.313 537.399 105.313ZM593.935 65.384C593.935 57.4347 595.539 50.47 598.748 44.4898C602.03 38.5095 606.661 33.8785 612.641 30.5967C618.622 27.242 625.696 25.5646 633.864 25.5646C642.105 25.5646 649.215 27.242 655.196 30.5967C661.176 33.8785 665.807 38.5095 669.089 44.4898C672.371 50.47 674.011 57.4347 674.011 65.384C674.011 73.3333 672.371 80.2981 669.089 86.2783C665.807 92.2585 661.176 96.926 655.196 100.281C649.215 103.635 642.105 105.313 633.864 105.313C625.696 105.313 618.622 103.635 612.641 100.281C606.661 96.926 602.03 92.2585 598.748 86.2783C595.539 80.2251 593.935 73.2604 593.935 65.384ZM618.658 65.384C618.658 71.8018 619.861 76.7975 622.268 80.371C624.748 83.9445 628.613 85.7313 633.864 85.7313C639.115 85.7313 642.98 83.9445 645.46 80.371C648.012 76.7245 649.288 71.7289 649.288 65.384C649.288 59.0392 648.012 54.08 645.46 50.5064C642.98 46.9329 639.115 45.1461 633.864 45.1461C628.613 45.1461 624.748 46.9329 622.268 50.5064C619.861 54.007 618.658 58.9662 618.658 65.384ZM624.128 129.817V111.33H643.819V129.817H624.128ZM610.891 20.3137L624.894 0.950916H643.053L657.055 20.3137H641.959L633.973 11.9997L625.987 20.3137H610.891ZM695.83 104V26.8773H719.46V104H695.83Z" fill="#FFF3F3"/>
</svg>
