<svg width="33" height="33" viewBox="0 0 33 33" fill="none" xmlns="http://www.w3.org/2000/svg">
<path d="M10.4 14.6455C12.8853 14.6455 14.9 12.6308 14.9 10.1455C14.9 7.66023 12.8853 5.64551 10.4 5.64551C7.91471 5.64551 5.89999 7.66023 5.89999 10.1455C5.89999 12.6308 7.91471 14.6455 10.4 14.6455Z" stroke="#19191A" stroke-width="2" stroke-linecap="round" stroke-linejoin="round"/>
<path d="M23.4 14.6455C25.8853 14.6455 27.9 12.6308 27.9 10.1455C27.9 7.66023 25.8853 5.64551 23.4 5.64551C20.9147 5.64551 18.9 7.66023 18.9 10.1455C18.9 12.6308 20.9147 14.6455 23.4 14.6455Z" stroke="#19191A" stroke-width="2" stroke-linecap="round" stroke-linejoin="round"/>
<path d="M10.4 27.6455C12.8853 27.6455 14.9 25.6308 14.9 23.1455C14.9 20.6602 12.8853 18.6455 10.4 18.6455C7.91471 18.6455 5.89999 20.6602 5.89999 23.1455C5.89999 25.6308 7.91471 27.6455 10.4 27.6455Z" stroke="#19191A" stroke-width="2" stroke-linecap="round" stroke-linejoin="round"/>
<rect x="18.9" y="18.6455" width="9" height="9" stroke="#19191A" stroke-width="2" stroke-linecap="round" stroke-linejoin="round"/>
</svg>
