<svg width="32" height="35" viewBox="0 0 32 35" fill="none" xmlns="http://www.w3.org/2000/svg">
<path d="M16 3.59177C13.4288 3.59177 10.9154 4.39523 8.77758 5.90053C6.63974 7.40584 4.97351 9.54539 3.98957 12.0486C3.00563 14.5519 2.74819 17.3063 3.2498 19.9638C3.7514 22.6212 4.98953 25.0622 6.80761 26.9781C8.62569 28.8939 10.9421 30.1987 13.4638 30.7273C15.9856 31.2559 18.5994 30.9846 20.9748 29.9477C23.3503 28.9108 25.3806 27.155 26.809 24.9021C28.2375 22.6493 28.9999 20.0006 28.9999 17.2911C28.9933 13.66 27.6216 10.1795 25.185 7.61192C22.7485 5.0443 19.4457 3.59874 16 3.59177ZM20.7125 20.7555C20.9002 20.9553 21.0056 21.2251 21.0056 21.5063C21.0056 21.7875 20.9002 22.0574 20.7125 22.2572C20.5213 22.4519 20.2658 22.5608 20 22.5608C19.7341 22.5608 19.4786 22.4519 19.2875 22.2572L16 18.7796L12.7125 22.2572C12.5213 22.4519 12.2659 22.5608 12 22.5608C11.7341 22.5608 11.4786 22.4519 11.2875 22.2572C11.0997 22.0574 10.9944 21.7875 10.9944 21.5063C10.9944 21.2251 11.0997 20.9553 11.2875 20.7555L14.5875 17.2911L11.2875 13.8268C11.128 13.622 11.0465 13.3621 11.0589 13.0975C11.0712 12.833 11.1765 12.5827 11.3542 12.3954C11.5319 12.2081 11.7694 12.0972 12.0205 12.0842C12.2715 12.0712 12.5182 12.1571 12.7125 12.3251L16 15.8027L19.2875 12.3251C19.4818 12.1571 19.7284 12.0712 19.9795 12.0842C20.2305 12.0972 20.468 12.2081 20.6458 12.3954C20.8235 12.5827 20.9288 12.833 20.9411 13.0975C20.9534 13.3621 20.8719 13.622 20.7125 13.8268L17.4125 17.2911L20.7125 20.7555Z" fill="#000000"/>
</svg>
