<svg width="24" height="25" viewBox="0 0 24 25" fill="none" xmlns="http://www.w3.org/2000/svg">
<path d="M13.0592 12.4997L19.2842 6.2841C19.4038 6.13838 19.4649 5.95338 19.4557 5.76509C19.4464 5.5768 19.3675 5.39869 19.2342 5.26539C19.1009 5.13208 18.9227 5.05313 18.7345 5.04388C18.5462 5.03464 18.3612 5.09575 18.2154 5.21535L11.9998 11.4404L5.7842 5.21535C5.63848 5.09575 5.45348 5.03464 5.26519 5.04388C5.0769 5.05313 4.89878 5.13208 4.76548 5.26539C4.63218 5.39869 4.55323 5.5768 4.54398 5.76509C4.53473 5.95338 4.59585 6.13838 4.71545 6.2841L10.9404 12.4997L4.71545 18.7154C4.57461 18.8575 4.49561 19.0496 4.49561 19.2497C4.49561 19.4499 4.57461 19.6419 4.71545 19.7841C4.8588 19.9227 5.05041 20.0002 5.24982 20.0002C5.44924 20.0002 5.64084 19.9227 5.7842 19.7841L11.9998 13.5591L18.2154 19.7841C18.3588 19.9227 18.5504 20.0002 18.7498 20.0002C18.9492 20.0002 19.1408 19.9227 19.2842 19.7841C19.425 19.6419 19.504 19.4499 19.504 19.2497C19.504 19.0496 19.425 18.8575 19.2842 18.7154L13.0592 12.4997Z" fill="#19191A"/>
</svg>
