<svg width="49" height="24" viewBox="0 0 49 24" fill="none" xmlns="http://www.w3.org/2000/svg">
<path d="M22.2776 6.02832H5.02625C4.6743 6.02832 4.33676 6.16813 4.0879 6.417C3.83903 6.66586 3.69922 7.0034 3.69922 7.35535V16.6445C3.69922 16.9965 3.83903 17.334 4.0879 17.5829C4.33676 17.8317 4.6743 17.9716 5.02625 17.9716H22.2776C22.6295 17.9716 22.9671 17.8317 23.2159 17.5829C23.4648 17.334 23.6046 16.9965 23.6046 16.6445V7.35535C23.6046 7.0034 23.4648 6.66586 23.2159 6.417C22.9671 6.16813 22.6295 6.02832 22.2776 6.02832ZM9.25614 16.6445L5.02625 13.0201V10.9798L9.25614 7.35535H18.0477L22.2776 10.9798V13.0201L18.0477 16.6445H9.25614ZM16.9695 11.9999C16.9695 12.6561 16.7749 13.2975 16.4104 13.8431C16.0458 14.3887 15.5277 14.8139 14.9215 15.065C14.3153 15.3161 13.6482 15.3818 13.0047 15.2538C12.3611 15.1257 11.77 14.8098 11.306 14.3458C10.8421 13.8818 10.5261 13.2907 10.3981 12.6472C10.2701 12.0036 10.3358 11.3366 10.5869 10.7304C10.838 10.1242 11.2632 9.60602 11.8088 9.24148C12.3543 8.87695 12.9958 8.68237 13.6519 8.68237C14.5318 8.68237 15.3756 9.0319 15.9978 9.65407C16.62 10.2762 16.9695 11.1201 16.9695 11.9999Z" fill="#3074DA"/>
<path d="M29.7308 15.6161C29.0503 15.6161 28.4592 15.4864 27.9575 15.2269C27.4615 14.9616 27.0751 14.5925 26.7983 14.1196C26.5273 13.6468 26.3918 13.0931 26.3918 12.4588C26.3918 11.8244 26.5273 11.2737 26.7983 10.8066C27.0751 10.3337 27.4615 9.96752 27.9575 9.70801C28.4592 9.44274 29.0503 9.3101 29.7308 9.3101C30.146 9.3101 30.5266 9.36489 30.8726 9.47446C31.2244 9.57826 31.5156 9.7282 31.7463 9.92427L31.2013 11.3862C30.9418 11.2132 30.7082 11.0949 30.5006 11.0315C30.293 10.9623 30.0595 10.9277 29.8 10.9277C29.3329 10.9277 28.9724 11.0603 28.7187 11.3256C28.4707 11.5851 28.3467 11.9628 28.3467 12.4588C28.3467 12.9605 28.4707 13.344 28.7187 13.6093C28.9724 13.8688 29.3329 13.9985 29.8 13.9985C30.0595 13.9985 30.293 13.9668 30.5006 13.9034C30.7082 13.8342 30.9418 13.7131 31.2013 13.5401L31.7463 15.002C31.5156 15.198 31.2244 15.3509 30.8726 15.4604C30.5266 15.5642 30.146 15.6161 29.7308 15.6161ZM32.1023 12.4588C32.1023 11.8302 32.2292 11.2795 32.4829 10.8066C32.7424 10.3337 33.1086 9.96752 33.5815 9.70801C34.0544 9.44274 34.6137 9.3101 35.2596 9.3101C35.9113 9.3101 36.4735 9.44274 36.9464 9.70801C37.4193 9.96752 37.7855 10.3337 38.045 10.8066C38.3045 11.2795 38.4343 11.8302 38.4343 12.4588C38.4343 13.0874 38.3045 13.6381 38.045 14.111C37.7855 14.5839 37.4193 14.9529 36.9464 15.2182C36.4735 15.4835 35.9113 15.6161 35.2596 15.6161C34.6137 15.6161 34.0544 15.4835 33.5815 15.2182C33.1086 14.9529 32.7424 14.5839 32.4829 14.111C32.2292 13.6323 32.1023 13.0816 32.1023 12.4588ZM34.0572 12.4588C34.0572 12.9663 34.1524 13.3613 34.3427 13.6439C34.5388 13.9265 34.8444 14.0677 35.2596 14.0677C35.6748 14.0677 35.9805 13.9265 36.1765 13.6439C36.3784 13.3555 36.4793 12.9605 36.4793 12.4588C36.4793 11.9571 36.3784 11.5649 36.1765 11.2824C35.9805 10.9998 35.6748 10.8585 35.2596 10.8585C34.8444 10.8585 34.5388 10.9998 34.3427 11.2824C34.1524 11.5592 34.0572 11.9513 34.0572 12.4588ZM39.2946 15.5123V9.41391H41.881C42.6191 9.41391 43.2391 9.53789 43.7408 9.78587C44.2483 10.0338 44.6318 10.3856 44.8913 10.8412C45.1508 11.291 45.2805 11.8302 45.2805 12.4588C45.2805 13.0816 45.1508 13.6208 44.8913 14.0764C44.6318 14.532 44.2483 14.8866 43.7408 15.1404C43.2391 15.3883 42.6191 15.5123 41.881 15.5123H39.2946ZM41.163 14.0072H41.7685C42.3337 14.0072 42.7518 13.8803 43.0228 13.6266C43.2939 13.3728 43.4294 12.9836 43.4294 12.4588C43.4294 11.9282 43.2939 11.539 43.0228 11.291C42.7518 11.043 42.3337 10.919 41.7685 10.919H41.163V14.0072Z" fill="#3074DA"/>
<rect x="0.886719" y="0.5" width="47" height="23" rx="1.5" stroke="#3074DA"/>
</svg>
