<svg width="25" height="24" viewBox="0 0 25 24" fill="none" xmlns="http://www.w3.org/2000/svg">
<path d="M3.85278 19.4915L8.89652 5.60711C8.9397 5.4883 9.01221 5.38233 9.10731 5.29905C9.20241 5.21577 9.31702 5.15788 9.44049 5.13075C9.56395 5.10363 9.69227 5.10815 9.81352 5.1439C9.93478 5.17965 10.045 5.24547 10.134 5.33524L18.9653 14.1665C19.055 14.2555 19.1209 14.3657 19.1566 14.487C19.1924 14.6082 19.1969 14.7366 19.1698 14.86C19.1426 14.9835 19.0847 15.0981 19.0015 15.1932C18.9182 15.2883 18.8122 15.3608 18.6934 15.404L4.80903 20.4477C4.67545 20.4988 4.52994 20.5101 4.39009 20.4803C4.25023 20.4504 4.122 20.3808 4.02088 20.2796C3.91976 20.1785 3.85008 20.0503 3.82025 19.9104C3.79042 19.7706 3.80171 19.6251 3.85278 19.4915V19.4915Z" stroke="#D72630" stroke-width="1.5" stroke-linecap="round" stroke-linejoin="round"/>
<path d="M16.05 6.75C16.05 6.75 16.05 4.5 18.3 4.5C20.55 4.5 20.55 2.25 20.55 2.25" stroke="#D72630" stroke-width="1.5" stroke-linecap="round" stroke-linejoin="round"/>
<path d="M9.89946 18.6004L5.69946 14.4004" stroke="#D72630" stroke-width="1.5" stroke-linecap="round" stroke-linejoin="round"/>
<path d="M13.8 1.5V3.75" stroke="#D72630" stroke-width="1.5" stroke-linecap="round" stroke-linejoin="round"/>
<path d="M20.55 10.5L22.05 12" stroke="#D72630" stroke-width="1.5" stroke-linecap="round" stroke-linejoin="round"/>
<path d="M20.55 7.5L22.8 6.75" stroke="#D72630" stroke-width="1.5" stroke-linecap="round" stroke-linejoin="round"/>
<path d="M7.50024 9.44922L14.8502 16.7992" stroke="#D72630" stroke-width="1.5" stroke-linecap="round" stroke-linejoin="round"/>
</svg>
