<svg width="26" height="26" viewBox="0 0 26 26" fill="none" xmlns="http://www.w3.org/2000/svg">
<path d="M11.2227 5.2C11.0318 5.00579 10.7944 4.86368 10.5331 4.78724C10.2717 4.71079 9.99517 4.70254 9.72973 4.76328C9.46188 4.82248 9.21338 4.94852 9.00738 5.12966C8.80138 5.3108 8.64458 5.54114 8.55161 5.79922L3.07739 20.8406C2.99202 21.0854 2.96609 21.347 3.00173 21.6038C3.03737 21.8606 3.13357 22.1053 3.28238 22.3176C3.43119 22.5299 3.62835 22.7038 3.85759 22.8249C4.08683 22.946 4.34159 23.0108 4.60083 23.0141C4.79077 23.0143 4.97947 22.9835 5.15942 22.9227L20.2008 17.4484C20.4589 17.3555 20.6892 17.1987 20.8704 16.9927C21.0515 16.7867 21.1776 16.5382 21.2368 16.2703C21.2975 16.0049 21.2893 15.7283 21.2128 15.467C21.1364 15.2056 20.9943 14.9682 20.8 14.7773L11.2227 5.2ZM6.47973 16.2297L8.42973 10.8672L15.1329 17.5703L9.77036 19.5203L6.47973 16.2297ZM16.25 7.3125C16.265 6.763 16.3965 6.22294 16.636 5.72813C17.1743 4.65156 18.1899 4.0625 19.5 4.0625C20.1805 4.0625 20.6172 3.82891 20.8915 3.33125C21.0312 3.04944 21.1108 2.7416 21.125 2.42734C21.125 2.32112 21.1461 2.21595 21.1871 2.11794C21.228 2.01992 21.288 1.93102 21.3636 1.85638C21.4392 1.78174 21.5289 1.72285 21.6274 1.68313C21.7259 1.64342 21.8313 1.62366 21.9375 1.625C22.153 1.625 22.3597 1.7106 22.5121 1.86298C22.6644 2.01535 22.75 2.22201 22.75 2.4375C22.75 3.74766 21.8868 5.6875 19.5 5.6875C18.8196 5.6875 18.3829 5.92109 18.1086 6.41875C17.9688 6.70056 17.8893 7.0084 17.875 7.32266C17.8751 7.42888 17.854 7.53405 17.813 7.63206C17.7721 7.73008 17.712 7.81898 17.6365 7.89362C17.5609 7.96826 17.4712 8.02715 17.3727 8.06687C17.2742 8.10658 17.1688 8.12634 17.0625 8.125C16.8471 8.125 16.6404 8.0394 16.488 7.88702C16.3356 7.73465 16.25 7.52799 16.25 7.3125ZM13.8125 4.0625V1.625C13.8125 1.40951 13.8981 1.20285 14.0505 1.05048C14.2029 0.898102 14.4096 0.8125 14.625 0.8125C14.8405 0.8125 15.0472 0.898102 15.1996 1.05048C15.3519 1.20285 15.4375 1.40951 15.4375 1.625V4.0625C15.4375 4.27799 15.3519 4.48465 15.1996 4.63702C15.0472 4.7894 14.8405 4.875 14.625 4.875C14.4096 4.875 14.2029 4.7894 14.0505 4.63702C13.8981 4.48465 13.8125 4.27799 13.8125 4.0625ZM24.1415 12.4211C24.294 12.5751 24.3796 12.7832 24.3796 13C24.3796 13.2168 24.294 13.4249 24.1415 13.5789C23.9861 13.7291 23.7786 13.813 23.5625 13.813C23.3465 13.813 23.1389 13.7291 22.9836 13.5789L21.3586 11.9539C21.2291 11.796 21.1629 11.5956 21.1729 11.3916C21.1829 11.1877 21.2684 10.9947 21.4128 10.8503C21.5572 10.7059 21.7502 10.6204 21.9542 10.6103C22.1582 10.6003 22.3586 10.6665 22.5165 10.7961L24.1415 12.4211ZM24.629 8.08437L22.1915 8.89687C22.1098 8.9251 22.0239 8.93885 21.9375 8.9375C21.7443 8.93755 21.5574 8.86872 21.4103 8.74338C21.2632 8.61803 21.1657 8.44437 21.1351 8.25357C21.1045 8.06276 21.1429 7.86731 21.2435 7.70228C21.344 7.53726 21.5001 7.41346 21.6836 7.35313L24.1211 6.54063C24.2225 6.50728 24.3294 6.49423 24.4359 6.50221C24.5423 6.5102 24.6461 6.53907 24.7413 6.58716C24.8366 6.63526 24.9214 6.70165 24.991 6.78254C25.0606 6.86343 25.1136 6.95723 25.1469 7.05859C25.1803 7.15996 25.1933 7.2669 25.1853 7.3733C25.1773 7.47971 25.1485 7.58351 25.1004 7.67876C25.0523 7.77401 24.9859 7.85886 24.905 7.92845C24.8241 7.99805 24.7303 8.05103 24.629 8.08437Z" fill="#DD1100"/>
</svg>
