<svg width="25" height="24" viewBox="0 0 25 24" fill="none" xmlns="http://www.w3.org/2000/svg">
<g clip-path="url(#clip0_326_10543)">
<path d="M18.875 3.95313H14.6974C14.4898 3.95313 14.2905 4.03582 14.1435 4.18261C13.9968 4.32958 13.9141 4.52883 13.9141 4.73646V12.3082H14.4362L14.4364 4.73646C14.4364 4.59221 14.5531 4.47547 14.6974 4.47547H18.875C18.9442 4.47547 19.0106 4.50297 19.0596 4.55178C19.1084 4.60077 19.1359 4.66725 19.1359 4.73645V19.3577C19.1359 19.4269 19.1084 19.4934 19.0596 19.5424C19.0106 19.5912 18.9442 19.6187 18.875 19.6187H16.8071C16.7532 19.7711 16.6536 19.9031 16.5217 19.9966C16.3899 20.09 16.2323 20.1404 16.0708 20.141H18.875C19.0826 20.141 19.2818 20.0583 19.4288 19.9115C19.5756 19.7645 19.6583 19.5653 19.6583 19.3577V4.73645C19.6583 4.52883 19.5756 4.32958 19.4288 4.1826C19.2818 4.03581 19.0826 3.95312 18.875 3.95312L18.875 3.95313Z" fill="#1357DB" stroke="#1357DB" stroke-width="0.2"/>
<path d="M6.08105 7.08591C6.25517 10.3931 6.42909 13.7004 6.6032 17.0075H7.08874L7.07562 16.7463L6.62942 7.60803H12.3213L12.0863 12.3077H12.6085C12.6937 10.5671 12.7807 8.8264 12.8696 7.08584L6.08105 7.08591Z" fill="#1357DB" stroke="#1357DB" stroke-width="0.2"/>
<path d="M14.4363 6.82517H19.136V7.34732H14.4363V6.82517Z" fill="#1357DB" stroke="#1357DB" stroke-width="0.2"/>
<path d="M14.4835 14.1356H9.5437V14.6577H16.3321V14.1356H14.4835Z" fill="#1357DB" stroke="#1357DB" stroke-width="0.2"/>
<path d="M9.07049 19.6186H7.38639C7.24234 19.6186 7.12541 19.5018 7.12541 19.3576V17.53H9.0237L9.02351 17.0077H6.60327V19.3576C6.60327 19.5652 6.68577 19.7645 6.83257 19.9114C6.97954 20.0582 7.17879 20.1409 7.38641 20.1409H9.80684C9.6453 20.1404 9.48776 20.0899 9.3559 19.9965C9.22404 19.9031 9.12442 19.771 9.07051 19.6186H9.07049Z" fill="#1357DB" stroke="#1357DB" stroke-width="0.2"/>
<path d="M14.7134 18.574H9.5437V19.0962H16.3321V18.574H14.7134Z" fill="#1357DB" stroke="#1357DB" stroke-width="0.2"/>
<path d="M16.0711 12.308H9.80481C9.59701 12.308 9.39776 12.3905 9.25078 12.5373C9.10399 12.6843 9.02148 12.8835 9.02148 13.0911V19.3574C9.02185 19.4466 9.0386 19.5351 9.07102 19.6184C9.12475 19.7704 9.224 19.9021 9.35532 19.9956C9.48663 20.089 9.64362 20.1396 9.8048 20.1407H16.071C16.2788 20.1407 16.4781 20.058 16.6249 19.9112C16.7719 19.7643 16.8544 19.565 16.8544 19.3574V13.0911C16.8544 12.8835 16.7719 12.6843 16.6249 12.5373C16.4781 12.3905 16.2789 12.308 16.071 12.308L16.0711 12.308ZM16.3322 14.1356V19.3575C16.3322 19.4966 16.2231 19.6115 16.0842 19.6185H9.80487C9.66063 19.6185 9.5437 19.5017 9.5437 19.3575V13.0912C9.5437 12.9472 9.66063 12.8303 9.80487 12.8303H16.0711C16.1403 12.8303 16.2068 12.8578 16.2558 12.9067C16.3046 12.9557 16.3323 13.022 16.3323 13.0912L16.3322 14.1356Z" fill="#1357DB" stroke="#1357DB" stroke-width="0.2"/>
<rect x="1" y="0.5" width="24" height="22" rx="1.5" stroke="#1357DB"/>
</g>
<defs>
<clipPath id="clip0_326_10543">
<rect width="24" height="24" fill="white" transform="translate(0.900146)"/>
</clipPath>
</defs>
</svg>
