<svg width="49" height="48" viewBox="0 0 49 48" fill="none" xmlns="http://www.w3.org/2000/svg">
<mask id="path-1-outside-1_494_20282" maskUnits="userSpaceOnUse" x="7" y="4.99976" width="37" height="37" fill="black">
<rect fill="white" x="7" y="4.99976" width="37" height="37"/>
<path d="M25.0881 22.5116C25.6257 22.5116 26.0481 22.934 26.0481 23.4716C26.0481 24.0092 25.6257 24.4316 25.0881 24.4316C24.5506 24.4316 24.1281 24.0092 24.1281 23.4716C24.1281 22.934 24.5506 22.5116 25.0881 22.5116ZM19.712 22.5116C20.2496 22.5116 20.672 22.934 20.672 23.4716C20.672 24.0092 20.2496 24.4316 19.712 24.4316C19.1744 24.4316 18.752 24.0092 18.752 23.4716C18.752 22.934 19.1744 22.5116 19.712 22.5116ZM22.4002 17.5196C22.9378 17.5196 23.3602 17.942 23.3602 18.4796C23.3602 19.0171 22.9378 19.4396 22.4002 19.4396C21.8626 19.4396 21.4402 19.0171 21.4402 18.4796C21.4402 17.942 21.8626 17.5196 22.4002 17.5196ZM27.7761 17.5196C28.3137 17.5196 28.7361 17.942 28.7361 18.4796C28.7361 19.0171 28.3137 19.4396 27.7761 19.4396C27.2385 19.4396 26.8161 19.0171 26.8161 18.4796C26.8161 17.942 27.2385 17.5196 27.7761 17.5196ZM30.464 22.5116C31.0016 22.5116 31.424 22.934 31.424 23.4716C31.424 24.0092 31.0016 24.4316 30.464 24.4316C29.9264 24.4316 29.504 24.0092 29.504 23.4716C29.504 22.934 29.9264 22.5116 30.464 22.5116ZM22.4 27.1196C22.9376 27.1196 23.36 27.542 23.36 28.0796C23.36 28.6171 22.9376 29.0396 22.4 29.0396C21.8624 29.0396 21.44 28.6171 21.44 28.0796C21.44 27.542 21.8624 27.1196 22.4 27.1196ZM27.7759 27.1196C28.3135 27.1196 28.7359 27.542 28.7359 28.0796C28.7359 28.6171 28.3135 29.0396 27.7759 29.0396C27.2383 29.0396 26.8159 28.6171 26.8159 28.0796C26.8159 27.542 27.2383 27.1196 27.7759 27.1196ZM22.4 11.7596C22.9376 11.7596 23.36 12.182 23.36 12.7196C23.36 13.2571 22.9376 13.6796 22.4 13.6796C21.8624 13.6796 21.44 13.2571 21.44 12.7196C21.44 12.182 21.8624 11.7596 22.4 11.7596ZM27.7759 11.7596C28.3135 11.7596 28.7359 12.182 28.7359 12.7196C28.7359 13.2571 28.3135 13.6796 27.7759 13.6796C27.2383 13.6796 26.8159 13.2571 26.8159 12.7196C26.8159 12.182 27.2383 11.7596 27.7759 11.7596ZM32.7679 14.4478C33.3055 14.4478 33.7279 14.8702 33.7279 15.4078C33.7279 15.9453 33.3055 16.3678 32.7679 16.3678C32.2304 16.3678 31.8079 15.9453 31.8079 15.4078C31.8079 14.8702 32.2304 14.4478 32.7679 14.4478ZM35.4559 19.4396C35.9935 19.4396 36.4159 19.862 36.4159 20.3996C36.4159 20.9371 35.9935 21.3596 35.4559 21.3596C34.9183 21.3596 34.4959 20.9371 34.4959 20.3996C34.4959 19.862 34.9183 19.4396 35.4559 19.4396ZM35.4559 25.1996C35.9935 25.1996 36.4159 25.622 36.4159 26.1596C36.4159 26.6971 35.9935 27.1196 35.4559 27.1196C34.9183 27.1196 34.4959 26.6971 34.4959 26.1596C34.4959 25.622 34.9183 25.1996 35.4559 25.1996ZM32.7679 30.1916C33.3055 30.1916 33.7279 30.614 33.7279 31.1516C33.7279 31.6892 33.3055 32.1116 32.7679 32.1116C32.2304 32.1116 31.8079 31.6892 31.8079 31.1516C31.8079 30.614 32.2304 30.1916 32.7679 30.1916ZM27.7759 32.8796C28.3135 32.8796 28.7359 33.302 28.7359 33.8396C28.7359 34.3771 28.3135 34.7996 27.7759 34.7996C27.2383 34.7996 26.8159 34.3771 26.8159 33.8396C26.8159 33.302 27.2383 32.8796 27.7759 32.8796ZM22.4 32.8796C22.9376 32.8796 23.36 33.302 23.36 33.8396C23.36 34.3771 22.9376 34.7996 22.4 34.7996C21.8624 34.7996 21.44 34.3771 21.44 33.8396C21.44 33.302 21.8624 32.8796 22.4 32.8796ZM17.4079 30.1916C17.9455 30.1916 18.3679 30.614 18.3679 31.1516C18.3679 31.6892 17.9455 32.1116 17.4079 32.1116C16.8703 32.1116 16.4479 31.6892 16.4479 31.1516C16.4479 30.614 16.8703 30.1916 17.4079 30.1916ZM14.72 25.1996C15.2576 25.1996 15.68 25.622 15.68 26.1596C15.68 26.6971 15.2576 27.1196 14.72 27.1196C14.1824 27.1196 13.76 26.6971 13.76 26.1596C13.76 25.622 14.1824 25.1996 14.72 25.1996ZM14.72 19.4396C15.2576 19.4396 15.68 19.862 15.68 20.3996C15.68 20.9371 15.2576 21.3596 14.72 21.3596C14.1824 21.3596 13.76 20.9371 13.76 20.3996C13.76 19.862 14.1824 19.4396 14.72 19.4396ZM17.4079 14.4478C17.9455 14.4478 18.3679 14.8702 18.3679 15.4078C18.3679 15.9453 17.9455 16.3678 17.4079 16.3678C16.8703 16.3678 16.4479 15.9453 16.4479 15.4078C16.4479 14.8702 16.8703 14.4478 17.4079 14.4478ZM25.0879 5.99976C25.6255 5.99976 26.0479 6.42217 26.0479 6.95976C26.0479 7.49734 25.6255 7.91976 25.0879 7.91976C24.5503 7.91976 24.1279 7.49734 24.1279 6.95976C24.1279 6.42217 24.5503 5.99976 25.0879 5.99976ZM30.8479 7.15182C31.3855 7.15182 31.8079 7.57424 31.8079 8.11182C31.8079 8.64941 31.3855 9.07182 30.8479 9.07182C30.3103 9.07182 29.8879 8.64941 29.8879 8.11182C29.8879 7.57424 30.3103 7.15182 30.8479 7.15182ZM35.4559 9.83976C35.9935 9.83976 36.4159 10.2622 36.4159 10.7998C36.4159 11.3373 35.9935 11.7598 35.4559 11.7598C34.9183 11.7598 34.4959 11.3373 34.4959 10.7998C34.4959 10.2622 34.9183 9.83976 35.4559 9.83976ZM39.2959 14.448C39.8335 14.448 40.2559 14.8704 40.2559 15.408C40.2559 15.9455 39.8335 16.368 39.2959 16.368C38.7583 16.368 38.3359 15.9455 38.3359 15.408C38.3359 14.8704 38.7583 14.448 39.2959 14.448ZM41.2159 19.4398C41.7535 19.4398 42.1759 19.8622 42.1759 20.3998C42.1759 20.9373 41.7535 21.3598 41.2159 21.3598C40.6783 21.3598 40.2559 20.9373 40.2559 20.3998C40.2559 19.8622 40.6783 19.4398 41.2159 19.4398ZM41.2159 25.1998C41.7535 25.1998 42.1759 25.6222 42.1759 26.1598C42.1759 26.6973 41.7535 27.1198 41.2159 27.1198C40.6783 27.1198 40.2559 26.6973 40.2559 26.1598C40.2559 25.6222 40.6783 25.1998 41.2159 25.1998ZM39.2959 30.5759C39.8335 30.5759 40.2559 30.9983 40.2559 31.5359C40.2559 32.0735 39.8335 32.4959 39.2959 32.4959C38.7583 32.4959 38.3359 32.0735 38.3359 31.5359C38.3359 30.9983 38.7583 30.5759 39.2959 30.5759ZM35.4559 34.7998C35.9935 34.7998 36.4159 35.2222 36.4159 35.7598C36.4159 36.2973 35.9935 36.7198 35.4559 36.7198C34.9183 36.7198 34.4959 36.2973 34.4959 35.7598C34.4959 35.2222 34.9183 34.7998 35.4559 34.7998ZM30.4638 37.8718C31.0014 37.8718 31.4238 38.2942 31.4238 38.8318C31.4238 39.3694 31.0014 39.7918 30.4638 39.7918C29.9262 39.7918 29.5038 39.3694 29.5038 38.8318C29.5038 38.2942 29.9262 37.8718 30.4638 37.8718V37.8718ZM25.0879 38.6398C25.6255 38.6398 26.0479 39.0622 26.0479 39.5998C26.0479 40.1373 25.6255 40.5598 25.0879 40.5598C24.5503 40.5598 24.1279 40.1373 24.1279 39.5998C24.1279 39.0622 24.5503 38.6398 25.0879 38.6398ZM19.7118 37.8718C20.2494 37.8718 20.6718 38.2942 20.6718 38.8318C20.6718 39.3694 20.2494 39.7918 19.7118 39.7918C19.1742 39.7918 18.7518 39.3694 18.7518 38.8318C18.7518 38.2942 19.1742 37.8718 19.7118 37.8718V37.8718ZM14.72 34.7998C15.2576 34.7998 15.68 35.2222 15.68 35.7598C15.68 36.2973 15.2576 36.7198 14.72 36.7198C14.1824 36.7198 13.76 36.2973 13.76 35.7598C13.76 35.2222 14.1824 34.7998 14.72 34.7998ZM11.2639 30.5759C11.8014 30.5759 12.2239 30.9983 12.2239 31.5359C12.2239 32.0735 11.8014 32.4959 11.2639 32.4959C10.7263 32.4959 10.3039 32.0735 10.3039 31.5359C10.3039 30.9983 10.7263 30.5759 11.2639 30.5759ZM8.96 25.1998C9.49759 25.1998 9.92 25.6222 9.92 26.1598C9.92 26.6973 9.49759 27.1198 8.96 27.1198C8.42241 27.1198 8 26.6973 8 26.1598C8 25.6222 8.42241 25.1998 8.96 25.1998ZM8.96 19.4398C9.49759 19.4398 9.92 19.8622 9.92 20.3998C9.92 20.9373 9.49759 21.3598 8.96 21.3598C8.42241 21.3598 8 20.9373 8 20.3998C8 19.8622 8.42241 19.4398 8.96 19.4398ZM11.2639 14.448C11.8014 14.448 12.2239 14.8704 12.2239 15.408C12.2239 15.9455 11.8014 16.368 11.2639 16.368C10.7263 16.368 10.3039 15.9455 10.3039 15.408C10.3039 14.8704 10.7263 14.448 11.2639 14.448ZM14.72 9.83976C15.2576 9.83976 15.68 10.2622 15.68 10.7998C15.68 11.3373 15.2576 11.7598 14.72 11.7598C14.1824 11.7598 13.76 11.3373 13.76 10.7998C13.76 10.2622 14.1824 9.83976 14.72 9.83976ZM19.7118 7.15182C20.2494 7.15182 20.6718 7.57424 20.6718 8.11182C20.6718 8.64941 20.2494 9.07182 19.7118 9.07182C19.1742 9.07182 18.7518 8.64941 18.7518 8.11182C18.7518 7.57424 19.1742 7.15182 19.7118 7.15182Z"/>
</mask>
<path d="M25.0881 22.5116C25.6257 22.5116 26.0481 22.934 26.0481 23.4716C26.0481 24.0092 25.6257 24.4316 25.0881 24.4316C24.5506 24.4316 24.1281 24.0092 24.1281 23.4716C24.1281 22.934 24.5506 22.5116 25.0881 22.5116ZM19.712 22.5116C20.2496 22.5116 20.672 22.934 20.672 23.4716C20.672 24.0092 20.2496 24.4316 19.712 24.4316C19.1744 24.4316 18.752 24.0092 18.752 23.4716C18.752 22.934 19.1744 22.5116 19.712 22.5116ZM22.4002 17.5196C22.9378 17.5196 23.3602 17.942 23.3602 18.4796C23.3602 19.0171 22.9378 19.4396 22.4002 19.4396C21.8626 19.4396 21.4402 19.0171 21.4402 18.4796C21.4402 17.942 21.8626 17.5196 22.4002 17.5196ZM27.7761 17.5196C28.3137 17.5196 28.7361 17.942 28.7361 18.4796C28.7361 19.0171 28.3137 19.4396 27.7761 19.4396C27.2385 19.4396 26.8161 19.0171 26.8161 18.4796C26.8161 17.942 27.2385 17.5196 27.7761 17.5196ZM30.464 22.5116C31.0016 22.5116 31.424 22.934 31.424 23.4716C31.424 24.0092 31.0016 24.4316 30.464 24.4316C29.9264 24.4316 29.504 24.0092 29.504 23.4716C29.504 22.934 29.9264 22.5116 30.464 22.5116ZM22.4 27.1196C22.9376 27.1196 23.36 27.542 23.36 28.0796C23.36 28.6171 22.9376 29.0396 22.4 29.0396C21.8624 29.0396 21.44 28.6171 21.44 28.0796C21.44 27.542 21.8624 27.1196 22.4 27.1196ZM27.7759 27.1196C28.3135 27.1196 28.7359 27.542 28.7359 28.0796C28.7359 28.6171 28.3135 29.0396 27.7759 29.0396C27.2383 29.0396 26.8159 28.6171 26.8159 28.0796C26.8159 27.542 27.2383 27.1196 27.7759 27.1196ZM22.4 11.7596C22.9376 11.7596 23.36 12.182 23.36 12.7196C23.36 13.2571 22.9376 13.6796 22.4 13.6796C21.8624 13.6796 21.44 13.2571 21.44 12.7196C21.44 12.182 21.8624 11.7596 22.4 11.7596ZM27.7759 11.7596C28.3135 11.7596 28.7359 12.182 28.7359 12.7196C28.7359 13.2571 28.3135 13.6796 27.7759 13.6796C27.2383 13.6796 26.8159 13.2571 26.8159 12.7196C26.8159 12.182 27.2383 11.7596 27.7759 11.7596ZM32.7679 14.4478C33.3055 14.4478 33.7279 14.8702 33.7279 15.4078C33.7279 15.9453 33.3055 16.3678 32.7679 16.3678C32.2304 16.3678 31.8079 15.9453 31.8079 15.4078C31.8079 14.8702 32.2304 14.4478 32.7679 14.4478ZM35.4559 19.4396C35.9935 19.4396 36.4159 19.862 36.4159 20.3996C36.4159 20.9371 35.9935 21.3596 35.4559 21.3596C34.9183 21.3596 34.4959 20.9371 34.4959 20.3996C34.4959 19.862 34.9183 19.4396 35.4559 19.4396ZM35.4559 25.1996C35.9935 25.1996 36.4159 25.622 36.4159 26.1596C36.4159 26.6971 35.9935 27.1196 35.4559 27.1196C34.9183 27.1196 34.4959 26.6971 34.4959 26.1596C34.4959 25.622 34.9183 25.1996 35.4559 25.1996ZM32.7679 30.1916C33.3055 30.1916 33.7279 30.614 33.7279 31.1516C33.7279 31.6892 33.3055 32.1116 32.7679 32.1116C32.2304 32.1116 31.8079 31.6892 31.8079 31.1516C31.8079 30.614 32.2304 30.1916 32.7679 30.1916ZM27.7759 32.8796C28.3135 32.8796 28.7359 33.302 28.7359 33.8396C28.7359 34.3771 28.3135 34.7996 27.7759 34.7996C27.2383 34.7996 26.8159 34.3771 26.8159 33.8396C26.8159 33.302 27.2383 32.8796 27.7759 32.8796ZM22.4 32.8796C22.9376 32.8796 23.36 33.302 23.36 33.8396C23.36 34.3771 22.9376 34.7996 22.4 34.7996C21.8624 34.7996 21.44 34.3771 21.44 33.8396C21.44 33.302 21.8624 32.8796 22.4 32.8796ZM17.4079 30.1916C17.9455 30.1916 18.3679 30.614 18.3679 31.1516C18.3679 31.6892 17.9455 32.1116 17.4079 32.1116C16.8703 32.1116 16.4479 31.6892 16.4479 31.1516C16.4479 30.614 16.8703 30.1916 17.4079 30.1916ZM14.72 25.1996C15.2576 25.1996 15.68 25.622 15.68 26.1596C15.68 26.6971 15.2576 27.1196 14.72 27.1196C14.1824 27.1196 13.76 26.6971 13.76 26.1596C13.76 25.622 14.1824 25.1996 14.72 25.1996ZM14.72 19.4396C15.2576 19.4396 15.68 19.862 15.68 20.3996C15.68 20.9371 15.2576 21.3596 14.72 21.3596C14.1824 21.3596 13.76 20.9371 13.76 20.3996C13.76 19.862 14.1824 19.4396 14.72 19.4396ZM17.4079 14.4478C17.9455 14.4478 18.3679 14.8702 18.3679 15.4078C18.3679 15.9453 17.9455 16.3678 17.4079 16.3678C16.8703 16.3678 16.4479 15.9453 16.4479 15.4078C16.4479 14.8702 16.8703 14.4478 17.4079 14.4478ZM25.0879 5.99976C25.6255 5.99976 26.0479 6.42217 26.0479 6.95976C26.0479 7.49734 25.6255 7.91976 25.0879 7.91976C24.5503 7.91976 24.1279 7.49734 24.1279 6.95976C24.1279 6.42217 24.5503 5.99976 25.0879 5.99976ZM30.8479 7.15182C31.3855 7.15182 31.8079 7.57424 31.8079 8.11182C31.8079 8.64941 31.3855 9.07182 30.8479 9.07182C30.3103 9.07182 29.8879 8.64941 29.8879 8.11182C29.8879 7.57424 30.3103 7.15182 30.8479 7.15182ZM35.4559 9.83976C35.9935 9.83976 36.4159 10.2622 36.4159 10.7998C36.4159 11.3373 35.9935 11.7598 35.4559 11.7598C34.9183 11.7598 34.4959 11.3373 34.4959 10.7998C34.4959 10.2622 34.9183 9.83976 35.4559 9.83976ZM39.2959 14.448C39.8335 14.448 40.2559 14.8704 40.2559 15.408C40.2559 15.9455 39.8335 16.368 39.2959 16.368C38.7583 16.368 38.3359 15.9455 38.3359 15.408C38.3359 14.8704 38.7583 14.448 39.2959 14.448ZM41.2159 19.4398C41.7535 19.4398 42.1759 19.8622 42.1759 20.3998C42.1759 20.9373 41.7535 21.3598 41.2159 21.3598C40.6783 21.3598 40.2559 20.9373 40.2559 20.3998C40.2559 19.8622 40.6783 19.4398 41.2159 19.4398ZM41.2159 25.1998C41.7535 25.1998 42.1759 25.6222 42.1759 26.1598C42.1759 26.6973 41.7535 27.1198 41.2159 27.1198C40.6783 27.1198 40.2559 26.6973 40.2559 26.1598C40.2559 25.6222 40.6783 25.1998 41.2159 25.1998ZM39.2959 30.5759C39.8335 30.5759 40.2559 30.9983 40.2559 31.5359C40.2559 32.0735 39.8335 32.4959 39.2959 32.4959C38.7583 32.4959 38.3359 32.0735 38.3359 31.5359C38.3359 30.9983 38.7583 30.5759 39.2959 30.5759ZM35.4559 34.7998C35.9935 34.7998 36.4159 35.2222 36.4159 35.7598C36.4159 36.2973 35.9935 36.7198 35.4559 36.7198C34.9183 36.7198 34.4959 36.2973 34.4959 35.7598C34.4959 35.2222 34.9183 34.7998 35.4559 34.7998ZM30.4638 37.8718C31.0014 37.8718 31.4238 38.2942 31.4238 38.8318C31.4238 39.3694 31.0014 39.7918 30.4638 39.7918C29.9262 39.7918 29.5038 39.3694 29.5038 38.8318C29.5038 38.2942 29.9262 37.8718 30.4638 37.8718V37.8718ZM25.0879 38.6398C25.6255 38.6398 26.0479 39.0622 26.0479 39.5998C26.0479 40.1373 25.6255 40.5598 25.0879 40.5598C24.5503 40.5598 24.1279 40.1373 24.1279 39.5998C24.1279 39.0622 24.5503 38.6398 25.0879 38.6398ZM19.7118 37.8718C20.2494 37.8718 20.6718 38.2942 20.6718 38.8318C20.6718 39.3694 20.2494 39.7918 19.7118 39.7918C19.1742 39.7918 18.7518 39.3694 18.7518 38.8318C18.7518 38.2942 19.1742 37.8718 19.7118 37.8718V37.8718ZM14.72 34.7998C15.2576 34.7998 15.68 35.2222 15.68 35.7598C15.68 36.2973 15.2576 36.7198 14.72 36.7198C14.1824 36.7198 13.76 36.2973 13.76 35.7598C13.76 35.2222 14.1824 34.7998 14.72 34.7998ZM11.2639 30.5759C11.8014 30.5759 12.2239 30.9983 12.2239 31.5359C12.2239 32.0735 11.8014 32.4959 11.2639 32.4959C10.7263 32.4959 10.3039 32.0735 10.3039 31.5359C10.3039 30.9983 10.7263 30.5759 11.2639 30.5759ZM8.96 25.1998C9.49759 25.1998 9.92 25.6222 9.92 26.1598C9.92 26.6973 9.49759 27.1198 8.96 27.1198C8.42241 27.1198 8 26.6973 8 26.1598C8 25.6222 8.42241 25.1998 8.96 25.1998ZM8.96 19.4398C9.49759 19.4398 9.92 19.8622 9.92 20.3998C9.92 20.9373 9.49759 21.3598 8.96 21.3598C8.42241 21.3598 8 20.9373 8 20.3998C8 19.8622 8.42241 19.4398 8.96 19.4398ZM11.2639 14.448C11.8014 14.448 12.2239 14.8704 12.2239 15.408C12.2239 15.9455 11.8014 16.368 11.2639 16.368C10.7263 16.368 10.3039 15.9455 10.3039 15.408C10.3039 14.8704 10.7263 14.448 11.2639 14.448ZM14.72 9.83976C15.2576 9.83976 15.68 10.2622 15.68 10.7998C15.68 11.3373 15.2576 11.7598 14.72 11.7598C14.1824 11.7598 13.76 11.3373 13.76 10.7998C13.76 10.2622 14.1824 9.83976 14.72 9.83976ZM19.7118 7.15182C20.2494 7.15182 20.6718 7.57424 20.6718 8.11182C20.6718 8.64941 20.2494 9.07182 19.7118 9.07182C19.1742 9.07182 18.7518 8.64941 18.7518 8.11182C18.7518 7.57424 19.1742 7.15182 19.7118 7.15182Z" fill="black"/>
<path d="M25.0881 22.5116C25.6257 22.5116 26.0481 22.934 26.0481 23.4716C26.0481 24.0092 25.6257 24.4316 25.0881 24.4316C24.5506 24.4316 24.1281 24.0092 24.1281 23.4716C24.1281 22.934 24.5506 22.5116 25.0881 22.5116ZM19.712 22.5116C20.2496 22.5116 20.672 22.934 20.672 23.4716C20.672 24.0092 20.2496 24.4316 19.712 24.4316C19.1744 24.4316 18.752 24.0092 18.752 23.4716C18.752 22.934 19.1744 22.5116 19.712 22.5116ZM22.4002 17.5196C22.9378 17.5196 23.3602 17.942 23.3602 18.4796C23.3602 19.0171 22.9378 19.4396 22.4002 19.4396C21.8626 19.4396 21.4402 19.0171 21.4402 18.4796C21.4402 17.942 21.8626 17.5196 22.4002 17.5196ZM27.7761 17.5196C28.3137 17.5196 28.7361 17.942 28.7361 18.4796C28.7361 19.0171 28.3137 19.4396 27.7761 19.4396C27.2385 19.4396 26.8161 19.0171 26.8161 18.4796C26.8161 17.942 27.2385 17.5196 27.7761 17.5196ZM30.464 22.5116C31.0016 22.5116 31.424 22.934 31.424 23.4716C31.424 24.0092 31.0016 24.4316 30.464 24.4316C29.9264 24.4316 29.504 24.0092 29.504 23.4716C29.504 22.934 29.9264 22.5116 30.464 22.5116ZM22.4 27.1196C22.9376 27.1196 23.36 27.542 23.36 28.0796C23.36 28.6171 22.9376 29.0396 22.4 29.0396C21.8624 29.0396 21.44 28.6171 21.44 28.0796C21.44 27.542 21.8624 27.1196 22.4 27.1196ZM27.7759 27.1196C28.3135 27.1196 28.7359 27.542 28.7359 28.0796C28.7359 28.6171 28.3135 29.0396 27.7759 29.0396C27.2383 29.0396 26.8159 28.6171 26.8159 28.0796C26.8159 27.542 27.2383 27.1196 27.7759 27.1196ZM22.4 11.7596C22.9376 11.7596 23.36 12.182 23.36 12.7196C23.36 13.2571 22.9376 13.6796 22.4 13.6796C21.8624 13.6796 21.44 13.2571 21.44 12.7196C21.44 12.182 21.8624 11.7596 22.4 11.7596ZM27.7759 11.7596C28.3135 11.7596 28.7359 12.182 28.7359 12.7196C28.7359 13.2571 28.3135 13.6796 27.7759 13.6796C27.2383 13.6796 26.8159 13.2571 26.8159 12.7196C26.8159 12.182 27.2383 11.7596 27.7759 11.7596ZM32.7679 14.4478C33.3055 14.4478 33.7279 14.8702 33.7279 15.4078C33.7279 15.9453 33.3055 16.3678 32.7679 16.3678C32.2304 16.3678 31.8079 15.9453 31.8079 15.4078C31.8079 14.8702 32.2304 14.4478 32.7679 14.4478ZM35.4559 19.4396C35.9935 19.4396 36.4159 19.862 36.4159 20.3996C36.4159 20.9371 35.9935 21.3596 35.4559 21.3596C34.9183 21.3596 34.4959 20.9371 34.4959 20.3996C34.4959 19.862 34.9183 19.4396 35.4559 19.4396ZM35.4559 25.1996C35.9935 25.1996 36.4159 25.622 36.4159 26.1596C36.4159 26.6971 35.9935 27.1196 35.4559 27.1196C34.9183 27.1196 34.4959 26.6971 34.4959 26.1596C34.4959 25.622 34.9183 25.1996 35.4559 25.1996ZM32.7679 30.1916C33.3055 30.1916 33.7279 30.614 33.7279 31.1516C33.7279 31.6892 33.3055 32.1116 32.7679 32.1116C32.2304 32.1116 31.8079 31.6892 31.8079 31.1516C31.8079 30.614 32.2304 30.1916 32.7679 30.1916ZM27.7759 32.8796C28.3135 32.8796 28.7359 33.302 28.7359 33.8396C28.7359 34.3771 28.3135 34.7996 27.7759 34.7996C27.2383 34.7996 26.8159 34.3771 26.8159 33.8396C26.8159 33.302 27.2383 32.8796 27.7759 32.8796ZM22.4 32.8796C22.9376 32.8796 23.36 33.302 23.36 33.8396C23.36 34.3771 22.9376 34.7996 22.4 34.7996C21.8624 34.7996 21.44 34.3771 21.44 33.8396C21.44 33.302 21.8624 32.8796 22.4 32.8796ZM17.4079 30.1916C17.9455 30.1916 18.3679 30.614 18.3679 31.1516C18.3679 31.6892 17.9455 32.1116 17.4079 32.1116C16.8703 32.1116 16.4479 31.6892 16.4479 31.1516C16.4479 30.614 16.8703 30.1916 17.4079 30.1916ZM14.72 25.1996C15.2576 25.1996 15.68 25.622 15.68 26.1596C15.68 26.6971 15.2576 27.1196 14.72 27.1196C14.1824 27.1196 13.76 26.6971 13.76 26.1596C13.76 25.622 14.1824 25.1996 14.72 25.1996ZM14.72 19.4396C15.2576 19.4396 15.68 19.862 15.68 20.3996C15.68 20.9371 15.2576 21.3596 14.72 21.3596C14.1824 21.3596 13.76 20.9371 13.76 20.3996C13.76 19.862 14.1824 19.4396 14.72 19.4396ZM17.4079 14.4478C17.9455 14.4478 18.3679 14.8702 18.3679 15.4078C18.3679 15.9453 17.9455 16.3678 17.4079 16.3678C16.8703 16.3678 16.4479 15.9453 16.4479 15.4078C16.4479 14.8702 16.8703 14.4478 17.4079 14.4478ZM25.0879 5.99976C25.6255 5.99976 26.0479 6.42217 26.0479 6.95976C26.0479 7.49734 25.6255 7.91976 25.0879 7.91976C24.5503 7.91976 24.1279 7.49734 24.1279 6.95976C24.1279 6.42217 24.5503 5.99976 25.0879 5.99976ZM30.8479 7.15182C31.3855 7.15182 31.8079 7.57424 31.8079 8.11182C31.8079 8.64941 31.3855 9.07182 30.8479 9.07182C30.3103 9.07182 29.8879 8.64941 29.8879 8.11182C29.8879 7.57424 30.3103 7.15182 30.8479 7.15182ZM35.4559 9.83976C35.9935 9.83976 36.4159 10.2622 36.4159 10.7998C36.4159 11.3373 35.9935 11.7598 35.4559 11.7598C34.9183 11.7598 34.4959 11.3373 34.4959 10.7998C34.4959 10.2622 34.9183 9.83976 35.4559 9.83976ZM39.2959 14.448C39.8335 14.448 40.2559 14.8704 40.2559 15.408C40.2559 15.9455 39.8335 16.368 39.2959 16.368C38.7583 16.368 38.3359 15.9455 38.3359 15.408C38.3359 14.8704 38.7583 14.448 39.2959 14.448ZM41.2159 19.4398C41.7535 19.4398 42.1759 19.8622 42.1759 20.3998C42.1759 20.9373 41.7535 21.3598 41.2159 21.3598C40.6783 21.3598 40.2559 20.9373 40.2559 20.3998C40.2559 19.8622 40.6783 19.4398 41.2159 19.4398ZM41.2159 25.1998C41.7535 25.1998 42.1759 25.6222 42.1759 26.1598C42.1759 26.6973 41.7535 27.1198 41.2159 27.1198C40.6783 27.1198 40.2559 26.6973 40.2559 26.1598C40.2559 25.6222 40.6783 25.1998 41.2159 25.1998ZM39.2959 30.5759C39.8335 30.5759 40.2559 30.9983 40.2559 31.5359C40.2559 32.0735 39.8335 32.4959 39.2959 32.4959C38.7583 32.4959 38.3359 32.0735 38.3359 31.5359C38.3359 30.9983 38.7583 30.5759 39.2959 30.5759ZM35.4559 34.7998C35.9935 34.7998 36.4159 35.2222 36.4159 35.7598C36.4159 36.2973 35.9935 36.7198 35.4559 36.7198C34.9183 36.7198 34.4959 36.2973 34.4959 35.7598C34.4959 35.2222 34.9183 34.7998 35.4559 34.7998ZM30.4638 37.8718C31.0014 37.8718 31.4238 38.2942 31.4238 38.8318C31.4238 39.3694 31.0014 39.7918 30.4638 39.7918C29.9262 39.7918 29.5038 39.3694 29.5038 38.8318C29.5038 38.2942 29.9262 37.8718 30.4638 37.8718V37.8718ZM25.0879 38.6398C25.6255 38.6398 26.0479 39.0622 26.0479 39.5998C26.0479 40.1373 25.6255 40.5598 25.0879 40.5598C24.5503 40.5598 24.1279 40.1373 24.1279 39.5998C24.1279 39.0622 24.5503 38.6398 25.0879 38.6398ZM19.7118 37.8718C20.2494 37.8718 20.6718 38.2942 20.6718 38.8318C20.6718 39.3694 20.2494 39.7918 19.7118 39.7918C19.1742 39.7918 18.7518 39.3694 18.7518 38.8318C18.7518 38.2942 19.1742 37.8718 19.7118 37.8718V37.8718ZM14.72 34.7998C15.2576 34.7998 15.68 35.2222 15.68 35.7598C15.68 36.2973 15.2576 36.7198 14.72 36.7198C14.1824 36.7198 13.76 36.2973 13.76 35.7598C13.76 35.2222 14.1824 34.7998 14.72 34.7998ZM11.2639 30.5759C11.8014 30.5759 12.2239 30.9983 12.2239 31.5359C12.2239 32.0735 11.8014 32.4959 11.2639 32.4959C10.7263 32.4959 10.3039 32.0735 10.3039 31.5359C10.3039 30.9983 10.7263 30.5759 11.2639 30.5759ZM8.96 25.1998C9.49759 25.1998 9.92 25.6222 9.92 26.1598C9.92 26.6973 9.49759 27.1198 8.96 27.1198C8.42241 27.1198 8 26.6973 8 26.1598C8 25.6222 8.42241 25.1998 8.96 25.1998ZM8.96 19.4398C9.49759 19.4398 9.92 19.8622 9.92 20.3998C9.92 20.9373 9.49759 21.3598 8.96 21.3598C8.42241 21.3598 8 20.9373 8 20.3998C8 19.8622 8.42241 19.4398 8.96 19.4398ZM11.2639 14.448C11.8014 14.448 12.2239 14.8704 12.2239 15.408C12.2239 15.9455 11.8014 16.368 11.2639 16.368C10.7263 16.368 10.3039 15.9455 10.3039 15.408C10.3039 14.8704 10.7263 14.448 11.2639 14.448ZM14.72 9.83976C15.2576 9.83976 15.68 10.2622 15.68 10.7998C15.68 11.3373 15.2576 11.7598 14.72 11.7598C14.1824 11.7598 13.76 11.3373 13.76 10.7998C13.76 10.2622 14.1824 9.83976 14.72 9.83976ZM19.7118 7.15182C20.2494 7.15182 20.6718 7.57424 20.6718 8.11182C20.6718 8.64941 20.2494 9.07182 19.7118 9.07182C19.1742 9.07182 18.7518 8.64941 18.7518 8.11182C18.7518 7.57424 19.1742 7.15182 19.7118 7.15182Z" stroke="black" stroke-width="2" mask="url(#path-1-outside-1_494_20282)"/>
</svg>
