<svg width="199" height="113" viewBox="0 0 199 113" fill="none" xmlns="http://www.w3.org/2000/svg">
<g clip-path="url(#clip0_494_22912)">
<path d="M50.4845 113C50.7044 107.952 50.9277 102.906 51.1575 97.6774C50.5994 97.6774 50.1266 97.6414 49.6604 97.684C36.7086 98.8267 23.7568 99.9628 10.8116 101.138C8.20153 101.374 5.6046 101.747 3.00111 102.065C1.75353 102.215 0.775171 101.839 0.545355 100.516C0.302406 99.1246 1.05095 98.3486 2.42 98.1882C8.71369 97.4515 14.9975 96.6232 21.3011 96.0306C31.2488 95.0942 41.2163 94.3247 51.43 93.4604C52.6021 71.7136 53.784 49.8392 54.9725 27.8043C59.8446 27.8043 64.5722 27.8043 69.3984 27.8043C70.357 18.9739 74.1326 11.7971 81.0599 6.37838C86.5427 2.08927 92.8298 -0.0323681 99.7702 0.000373185C116.13 0.0822264 128.895 12.8611 129.952 27.765C134.67 27.765 139.404 27.765 144.299 27.765C145.484 49.7475 146.663 71.5761 147.848 93.4898C152.264 93.7911 156.518 93.9875 160.754 94.3869C172.445 95.4903 184.129 96.6592 195.814 97.8444C197.908 98.0572 198.647 98.8136 198.473 100.172C198.299 101.521 197.278 101.921 195.262 101.737C180.032 100.336 164.798 98.974 149.568 97.6054C149.148 97.5661 148.721 97.6021 148.084 97.6021C148.36 102.824 148.626 107.916 148.895 113.004C116.09 113 83.2891 113 50.4845 113ZM143.327 107.719C141.984 82.7605 140.648 57.9557 139.312 33.1346C136.081 33.1346 133.054 33.1346 129.893 33.1346C129.893 35.0368 129.896 36.8245 129.893 38.6122C129.889 40.8353 129.722 40.999 127.463 41.0154C127.191 41.0187 126.915 41.0056 126.642 41.0154C125.231 41.071 124.531 40.5243 124.607 38.9952C124.702 37.0602 124.63 35.1154 124.63 33.1215C107.899 33.1215 91.3688 33.1215 74.6612 33.1215C74.6612 35.1678 74.6119 37.1159 74.6776 39.0607C74.7268 40.4817 74.0768 41.0547 72.7241 41.0154C72.2875 41.0023 71.8475 40.9957 71.4142 41.0187C69.9926 41.0907 69.2999 40.5275 69.3655 39.0116C69.4476 37.0733 69.3852 35.1285 69.3852 33.1346C66.1284 33.1346 63.1047 33.1346 59.966 33.1346C58.6265 58.0474 57.2936 82.8489 55.9574 107.719C85.1868 107.719 114.137 107.719 143.327 107.719ZM124.403 27.6668C123.789 15.0515 111.235 4.30585 98.3388 5.25862C85.7876 6.18848 74.0242 17.4646 74.9829 27.6668C91.4542 27.6668 107.925 27.6668 124.403 27.6668Z" fill="#B7B7B7"/>
<path d="M97.8201 90.8412C97.5312 90.6284 96.7695 90.3533 96.625 89.8884C96.451 89.3253 96.5922 88.4445 96.9501 87.9698C99.4715 84.64 103.014 83.3925 107.023 83.8116C108.841 84.0015 110.634 84.8725 112.322 85.6779C112.863 85.9365 113.349 87.0105 113.264 87.6325C113.201 88.1007 112.23 88.6934 111.589 88.7981C107.134 89.525 102.656 90.1373 97.8201 90.8412Z" fill="#B7B7B7"/>
<path d="M120.073 75.4687C120.043 77.2138 118.665 78.5267 116.905 78.4907C115.188 78.4547 113.789 77.0174 113.835 75.3312C113.878 73.645 115.352 72.2535 117.046 72.2928C118.783 72.3321 120.102 73.7171 120.073 75.4687Z" fill="#B7B7B7"/>
<path d="M85.4262 75.4622C85.3901 77.1909 83.9947 78.5169 82.2416 78.4875C80.495 78.4547 79.1423 77.0665 79.1784 75.341C79.2146 73.6287 80.6526 72.2535 82.363 72.2928C84.0867 72.3256 85.4623 73.7498 85.4262 75.4622Z" fill="#B7B7B7"/>
</g>
<defs>
<clipPath id="clip0_494_22912">
<rect width="198" height="113" fill="white" transform="translate(0.5)"/>
</clipPath>
</defs>
</svg>
