<svg width="26" height="26" viewBox="0 0 26 26" fill="none" xmlns="http://www.w3.org/2000/svg">
<path d="M20.3231 7.08884C18.9454 4.8469 17.1543 2.91754 15.5965 1.33309C15.5004 1.23624 15.3829 1.16417 15.2539 1.12292C15.1248 1.08167 14.9879 1.07243 14.8546 1.09596C14.7204 1.11747 14.5933 1.17188 14.4844 1.25451C14.3754 1.33714 14.2879 1.44549 14.2293 1.57022L10.9546 8.55473L7.54212 6.23734C7.35494 6.11133 7.12668 6.0649 6.90625 6.10799C6.7969 6.12994 6.69287 6.17361 6.60013 6.23649C6.50738 6.29938 6.42774 6.38024 6.36576 6.47446C4.29918 9.64336 3.25 12.5105 3.25 15.0003C3.25 17.6303 4.27723 20.1525 6.10571 22.0122C7.93419 23.8718 10.4141 24.9166 13 24.9166C15.5859 24.9166 18.0658 23.8718 19.8943 22.0122C21.7228 20.1525 22.75 17.6303 22.75 15.0003C22.75 12.3164 21.9552 9.72959 20.3231 7.08884ZM19.2845 15.9919C19.084 17.3513 18.4601 18.6095 17.5044 19.5815C16.5487 20.5535 15.3116 21.1881 13.975 21.392H13.8478C13.6351 21.3904 13.4308 21.3075 13.2753 21.1598C13.1199 21.0121 13.0247 20.8104 13.0087 20.5946C12.9927 20.3789 13.057 20.1649 13.1889 19.9952C13.3208 19.8254 13.5106 19.7123 13.7207 19.6782C14.695 19.5171 15.5948 19.0484 16.2928 18.3385C16.9908 17.6286 17.4517 16.7134 17.6101 15.7225C17.6218 15.6063 17.6566 15.4938 17.7123 15.3918C17.7681 15.2897 17.8436 15.2002 17.9344 15.1287C18.0252 15.0573 18.1292 15.0053 18.2404 14.9759C18.3515 14.9466 18.4673 14.9405 18.5808 14.958C18.6943 14.9756 18.8031 15.0164 18.9006 15.0779C18.9981 15.1395 19.0824 15.2206 19.1482 15.3163C19.214 15.4119 19.26 15.5202 19.2834 15.6345C19.3069 15.7488 19.3072 15.8667 19.2845 15.9812V15.9919Z" fill="#DD1100"/>
</svg>
