<svg width="25" height="24" viewBox="0 0 25 24" fill="none" xmlns="http://www.w3.org/2000/svg">
<path fill-rule="evenodd" clip-rule="evenodd" d="M7.21028 20.3179V19.0808C7.29892 19.0982 7.38719 19.1122 7.46943 19.1252C7.90934 19.1943 8.51899 19.2479 9.23241 19.2799C9.3299 19.2841 9.42367 19.2486 9.49361 19.1813C9.56368 19.1138 9.6034 19.0205 9.6034 18.923L9.60327 12.9285C9.98028 12.9409 10.3724 12.9472 10.7733 12.9472C11.8319 12.9472 12.8291 12.9032 13.581 12.8233C13.8846 12.791 14.1378 12.7538 14.3363 12.7126V20.3177C14.2984 20.3297 14.2526 20.3419 14.199 20.3542C13.6811 20.4726 12.445 20.5963 10.7733 20.5963C9.10149 20.5963 7.86543 20.4726 7.34753 20.3542C7.29399 20.3419 7.248 20.3297 7.21021 20.3177L7.21028 20.3179ZM13.5508 9.24578C13.4008 9.26717 13.1852 9.29305 12.8946 9.317C12.3443 9.35954 11.6674 9.38874 10.893 9.39156C10.8536 9.39169 10.8139 9.39182 10.7734 9.39182C10.733 9.39182 10.6933 9.39169 10.6537 9.39156C9.87843 9.38874 9.20089 9.35941 8.65004 9.31688C8.36052 9.29292 8.14555 9.26717 7.99595 9.24591V7.38533C8.14263 7.40954 8.31915 7.43144 8.52528 7.45092C9.12749 7.5078 9.92598 7.53905 10.7734 7.53905C11.6208 7.53905 12.4193 7.5078 13.0215 7.45092C13.2276 7.43145 13.4043 7.40954 13.5508 7.38533L13.5508 9.24578ZM13.585 9.96943C13.8777 9.93522 14.1288 9.89794 14.3365 9.85042V11.9816C13.9171 12.0979 12.6068 12.2329 10.7733 12.2329C10.2496 12.2329 9.74183 12.222 9.26411 12.2005C9.16688 12.1965 9.07285 12.2319 9.00278 12.2993C8.9327 12.3666 8.89312 12.46 8.89312 12.5575L8.89324 18.5471C7.924 18.4901 7.42198 18.4023 7.21035 18.3451V9.85062C7.41788 9.89815 7.66895 9.93543 7.96168 9.96963C8.17254 9.99436 8.40313 10.0159 8.64833 10.0342C9.15026 10.0739 9.84521 10.1066 10.7733 10.1066C11.7015 10.1066 12.3963 10.0739 12.8982 10.0342C13.1435 10.0159 13.3741 9.99436 13.585 9.96963L13.585 9.96943ZM9.56799 3.71481H14.5174L14.291 4.20329L13.0728 4.87545C12.9591 4.93822 12.8884 5.05826 12.8884 5.18879V6.74602C12.3863 6.79035 11.6699 6.82442 10.7734 6.82442C9.855 6.82442 9.12531 6.78868 8.62175 6.74282C8.62393 6.71989 8.62354 6.69631 8.62111 6.67249V4.66765C8.62111 4.14227 9.04577 3.7148 9.56793 3.7148L9.56799 3.71481ZM14.7345 4.77359C14.8007 4.73695 14.8536 4.6802 14.8855 4.61128L15.3966 3.50856C15.4479 3.39788 15.4394 3.26849 15.3742 3.16562C15.309 3.06263 15.1962 3.00024 15.0748 3.00024H9.56795C8.65433 3.00024 7.91094 3.74826 7.91094 4.66766V6.39951C7.8114 6.41758 7.71442 6.44076 7.62783 6.47305C7.43785 6.48009 7.28591 6.63689 7.28591 6.82969V8.71499C7.15242 8.74279 7.03905 8.77251 6.94809 8.8039C6.65089 8.90625 6.50024 9.06972 6.50024 9.28978V20.4538C6.50024 20.4604 6.50037 20.4671 6.50076 20.4738C6.50037 20.4807 6.50024 20.4877 6.50024 20.4949C6.50024 20.9221 7.01394 21.0634 7.96177 21.1745C8.00892 21.18 8.05695 21.1854 8.10589 21.1905C8.8402 21.2687 9.77983 21.3114 10.7734 21.3114C11.8332 21.3114 12.8318 21.2628 13.585 21.1745C14.2664 21.0946 14.7234 20.9993 14.9265 20.7933C15.006 20.7127 15.0467 20.6151 15.0467 20.4949C15.0467 20.4877 15.0464 20.4807 15.0461 20.4738C15.0464 20.4671 15.0467 20.4604 15.0467 20.4538V9.28979C15.0467 9.06971 14.8959 8.90626 14.5987 8.80391C14.5078 8.77252 14.3944 8.7428 14.261 8.715V6.8297C14.261 6.63818 14.111 6.48227 13.9229 6.47332C13.8256 6.43694 13.7144 6.41183 13.5986 6.39235V5.40031L14.7345 4.77359ZM16.8236 7.98413C16.4978 7.98413 16.1239 7.87652 16.1239 7.03744C16.1239 6.52837 16.5142 5.85952 16.824 5.4223C17.1336 5.85877 17.5234 6.52657 17.5234 7.03744C17.5234 7.47824 17.4439 7.98413 16.8236 7.98413ZM17.6529 5.38797C17.3776 4.94061 17.104 4.61985 17.0926 4.6064C17.0251 4.52775 16.927 4.48253 16.8236 4.48253C16.7203 4.48253 16.6222 4.52775 16.5547 4.6064C16.5432 4.61985 16.2695 4.94061 15.9944 5.38797C15.609 6.01402 15.4138 6.5691 15.4138 7.03744C15.4138 7.58407 15.55 8.00758 15.8186 8.29634C16.0636 8.55959 16.4112 8.69873 16.8236 8.69873C17.2362 8.69873 17.5837 8.55961 17.8287 8.29634C18.0973 8.00759 18.2335 7.58407 18.2335 7.03744C18.2335 6.5691 18.0383 6.01402 17.653 5.38797" fill="#DD5D00"/>
<path d="M17.6529 5.38797C17.3776 4.94061 17.104 4.61985 17.0926 4.6064C17.0251 4.52775 16.927 4.48253 16.8236 4.48253C16.7203 4.48253 16.6222 4.52775 16.5547 4.6064C16.5432 4.61985 16.2695 4.94061 15.9944 5.38797C15.609 6.01402 15.4138 6.5691 15.4138 7.03744C15.4138 7.58407 15.55 8.00758 15.8186 8.29634C16.0636 8.55959 16.4112 8.69873 16.8236 8.69873C17.2362 8.69873 17.5837 8.55961 17.8287 8.29634C18.0973 8.00759 18.2335 7.58407 18.2335 7.03744C18.2335 6.5691 18.0383 6.01402 17.653 5.38797M7.21028 20.3179V19.0808C7.29892 19.0982 7.38719 19.1122 7.46943 19.1252C7.90934 19.1943 8.51899 19.2479 9.23241 19.2799C9.3299 19.2841 9.42367 19.2486 9.49361 19.1813C9.56368 19.1138 9.6034 19.0205 9.6034 18.923L9.60327 12.9285C9.98028 12.9409 10.3724 12.9472 10.7733 12.9472C11.8319 12.9472 12.8291 12.9032 13.581 12.8233C13.8846 12.791 14.1378 12.7538 14.3363 12.7126V20.3177C14.2984 20.3297 14.2526 20.3419 14.199 20.3542C13.6811 20.4726 12.445 20.5963 10.7733 20.5963C9.10149 20.5963 7.86543 20.4726 7.34753 20.3542C7.29399 20.3419 7.248 20.3297 7.21021 20.3177L7.21028 20.3179ZM13.5508 9.24578C13.4008 9.26717 13.1852 9.29305 12.8946 9.317C12.3443 9.35954 11.6674 9.38874 10.893 9.39156C10.8536 9.39169 10.8139 9.39182 10.7734 9.39182C10.733 9.39182 10.6933 9.39169 10.6537 9.39156C9.87843 9.38874 9.20089 9.35941 8.65004 9.31688C8.36052 9.29292 8.14555 9.26717 7.99595 9.24591V7.38533C8.14263 7.40954 8.31915 7.43144 8.52528 7.45092C9.12749 7.5078 9.92598 7.53905 10.7734 7.53905C11.6208 7.53905 12.4193 7.5078 13.0215 7.45092C13.2276 7.43145 13.4043 7.40954 13.5508 7.38533L13.5508 9.24578ZM13.585 9.96943C13.8777 9.93522 14.1288 9.89794 14.3365 9.85042V11.9816C13.9171 12.0979 12.6068 12.2329 10.7733 12.2329C10.2496 12.2329 9.74183 12.222 9.26411 12.2005C9.16688 12.1965 9.07285 12.2319 9.00278 12.2993C8.9327 12.3666 8.89312 12.46 8.89312 12.5575L8.89324 18.5471C7.924 18.4901 7.42198 18.4023 7.21035 18.3451V9.85062C7.41788 9.89815 7.66895 9.93543 7.96168 9.96963C8.17254 9.99436 8.40313 10.0159 8.64833 10.0342C9.15026 10.0739 9.84521 10.1066 10.7733 10.1066C11.7015 10.1066 12.3963 10.0739 12.8982 10.0342C13.1435 10.0159 13.3741 9.99436 13.585 9.96963L13.585 9.96943ZM9.56799 3.71481H14.5174L14.291 4.20329L13.0728 4.87545C12.9591 4.93822 12.8884 5.05826 12.8884 5.18879V6.74602C12.3863 6.79035 11.6699 6.82442 10.7734 6.82442C9.855 6.82442 9.12531 6.78868 8.62175 6.74282C8.62393 6.71989 8.62354 6.69631 8.62111 6.67249V4.66765C8.62111 4.14227 9.04577 3.7148 9.56793 3.7148L9.56799 3.71481ZM14.7345 4.77359C14.8007 4.73695 14.8536 4.6802 14.8855 4.61128L15.3966 3.50856C15.4479 3.39788 15.4394 3.26849 15.3742 3.16562C15.309 3.06263 15.1962 3.00024 15.0748 3.00024H9.56795C8.65433 3.00024 7.91094 3.74826 7.91094 4.66766V6.39951C7.8114 6.41758 7.71442 6.44076 7.62783 6.47305C7.43785 6.48009 7.28591 6.63689 7.28591 6.82969V8.71499C7.15242 8.74279 7.03905 8.77251 6.94809 8.8039C6.65089 8.90625 6.50024 9.06972 6.50024 9.28978V20.4538C6.50024 20.4604 6.50037 20.4671 6.50076 20.4738C6.50037 20.4807 6.50024 20.4877 6.50024 20.4949C6.50024 20.9221 7.01394 21.0634 7.96177 21.1745C8.00892 21.18 8.05695 21.1854 8.10589 21.1905C8.8402 21.2687 9.77983 21.3114 10.7734 21.3114C11.8332 21.3114 12.8318 21.2628 13.585 21.1745C14.2664 21.0946 14.7234 20.9993 14.9265 20.7933C15.006 20.7127 15.0467 20.6151 15.0467 20.4949C15.0467 20.4877 15.0464 20.4807 15.0461 20.4738C15.0464 20.4671 15.0467 20.4604 15.0467 20.4538V9.28979C15.0467 9.06971 14.8959 8.90626 14.5987 8.80391C14.5078 8.77252 14.3944 8.7428 14.261 8.715V6.8297C14.261 6.63818 14.111 6.48227 13.9229 6.47332C13.8256 6.43694 13.7144 6.41183 13.5986 6.39236V5.40031L14.7345 4.77359ZM16.8236 7.98413C16.4978 7.98413 16.1239 7.87652 16.1239 7.03744C16.1239 6.52837 16.5142 5.85952 16.824 5.4223C17.1336 5.85877 17.5234 6.52657 17.5234 7.03744C17.5234 7.47824 17.4439 7.98413 16.8236 7.98413Z" stroke="#DD5D00" stroke-width="0.5"/>
</svg>
