<svg width="26" height="26" viewBox="0 0 26 26" fill="none" xmlns="http://www.w3.org/2000/svg">
<path d="M21.9375 7.31228H18.3828C18.8946 6.66602 19.1416 5.84944 19.0739 5.02787C19.0063 4.2063 18.6289 3.44115 18.0183 2.88734C17.4077 2.33353 16.6095 2.03245 15.7852 2.04506C14.961 2.05767 14.1723 2.38302 13.5789 2.95525C13.3395 3.19755 13.1437 3.47928 13 3.78807C12.8563 3.47928 12.6605 3.19755 12.4211 2.95525C11.8277 2.38302 11.039 2.05767 10.2148 2.04506C9.39054 2.03245 8.59229 2.33353 7.98168 2.88734C7.37107 3.44115 6.99373 4.2063 6.92605 5.02787C6.85838 5.84944 7.10543 6.66602 7.61719 7.31228H4.0625C3.63152 7.31228 3.2182 7.48349 2.91345 7.78824C2.6087 8.09298 2.4375 8.50631 2.4375 8.93728V12.1873C2.4375 12.6183 2.6087 13.0316 2.91345 13.3363C3.2182 13.6411 3.63152 13.8123 4.0625 13.8123V20.3123C4.0625 20.7433 4.2337 21.1566 4.53845 21.4613C4.8432 21.7661 5.25652 21.9373 5.6875 21.9373H20.3125C20.7435 21.9373 21.1568 21.7661 21.4615 21.4613C21.7663 21.1566 21.9375 20.7433 21.9375 20.3123V13.8123C22.3685 13.8123 22.7818 13.6411 23.0865 13.3363C23.3913 13.0316 23.5625 12.6183 23.5625 12.1873V8.93728C23.5625 8.50631 23.3913 8.09298 23.0865 7.78824C22.7818 7.48349 22.3685 7.31228 21.9375 7.31228ZM14.7266 4.10291C14.8744 3.93978 15.0538 3.80838 15.2539 3.71669C15.454 3.625 15.6707 3.57493 15.8908 3.56951C16.1108 3.56409 16.3297 3.60344 16.5341 3.68517C16.7385 3.7669 16.9242 3.88931 17.0798 4.04497C17.2355 4.20063 17.3579 4.38629 17.4396 4.59068C17.5213 4.79508 17.5607 5.01395 17.5553 5.23401C17.5499 5.45408 17.4998 5.67075 17.4081 5.87088C17.3164 6.071 17.185 6.25041 17.0219 6.39822C16.5242 6.90603 15.0719 7.18025 13.843 7.28182C13.9445 6.05291 14.2188 4.60057 14.7266 4.10291ZM8.97813 4.10291C9.28405 3.80147 9.6963 3.63249 10.1258 3.63249C10.5553 3.63249 10.9675 3.80147 11.2734 4.10291C11.7812 4.60057 12.0555 6.05291 12.157 7.28182C10.9281 7.18025 9.47578 6.90603 8.97813 6.39822C8.67668 6.09229 8.50771 5.68005 8.50771 5.25057C8.50771 4.82108 8.67668 4.40884 8.97813 4.10291ZM21.9375 12.1873H13.8125V19.4998C13.8125 19.7153 13.7269 19.9219 13.5745 20.0743C13.4222 20.2267 13.2155 20.3123 13 20.3123C12.7845 20.3123 12.5778 20.2267 12.4255 20.0743C12.2731 19.9219 12.1875 19.7153 12.1875 19.4998V12.1873H4.0625V8.93728H12.1875V12.1873H13.8125V8.93728H21.9375V12.1873Z" fill="black"/>
</svg>
