<svg width="26" height="26" viewBox="0 0 26 26" fill="none" xmlns="http://www.w3.org/2000/svg">
<path d="M14.8759 19.222C15.2541 19.2224 15.6166 19.3723 15.8848 19.6389C16.153 19.9055 16.3051 20.2672 16.3079 20.6453L16.3191 22.3821C16.3197 22.4691 16.3549 22.5524 16.4168 22.6134C16.4788 22.6745 16.5625 22.7085 16.6497 22.7077L18.2057 22.6974L18.1462 13.8196L16.5902 13.8299C16.5031 13.8303 16.4196 13.8654 16.3585 13.9273C16.2971 13.9894 16.263 14.0731 16.2636 14.1603L16.2756 15.8966V15.9697V15.9779C16.2586 16.3178 16.121 16.6404 15.8876 16.8879C15.6541 17.1355 15.3402 17.292 15.0019 17.329C14.9813 17.3316 14.9589 17.3328 14.9391 17.3345H14.9292C14.9046 17.3345 14.8807 17.3367 14.8561 17.3371L7.40515 17.3871C7.1565 17.3889 6.91877 17.489 6.74343 17.6654C6.56823 17.8418 6.46988 18.0805 6.46973 18.3291V18.3377C6.47172 18.5861 6.57192 18.8237 6.74819 18.9986C6.92461 19.1736 7.16281 19.2718 7.4113 19.2718H7.41821L14.8699 19.2214L14.8759 19.222Z" fill="#39393A"/>
<path d="M7.24471 16.8807H7.2567C7.27268 16.8807 7.28897 16.8776 7.30495 16.8769H7.32693C7.35075 16.8769 7.37441 16.876 7.39793 16.8743L14.8496 16.8243C14.94 16.8237 15.0299 16.8099 15.1164 16.7834C15.2738 16.7333 15.415 16.642 15.5251 16.519C15.6353 16.3959 15.7104 16.2454 15.7425 16.0833C15.7534 16.0244 15.7588 15.9646 15.7585 15.9047L15.7465 14.1684H15.7464C15.745 13.9444 15.8326 13.7289 15.9899 13.5694C16.1475 13.4099 16.3618 13.3195 16.5859 13.3183L18.3965 13.3063L18.6215 13.2977L18.9258 13.2857H18.9442L19.0982 13.2805C19.8297 13.2551 20.2978 12.4383 20.5613 11.7577C20.9347 10.7895 21.0678 9.6724 21.0678 8.9495L21.0679 8.22998H2.68945V8.94336C2.68869 10.5491 3.10884 12.127 3.90814 13.5196C4.70741 14.9122 5.85788 16.0711 7.24467 16.8805L7.24471 16.8807Z" fill="#39393A"/>
<path d="M20.4762 4.88899V2.67603L18.9228 3.22941C16.9244 3.94369 14.8018 4.24477 12.6836 4.11412L7.44843 3.79816C6.38758 3.80031 5.36718 4.20617 4.59478 4.93352C3.82254 5.66087 3.35615 6.65503 3.29053 7.71388H17.6518C18.4007 7.71311 19.1187 7.41528 19.6482 6.88569C20.1778 6.35596 20.4756 5.63797 20.4763 4.88895L20.4762 4.88899Z" fill="#39393A"/>
<path d="M18.2556 13.5586C18.2556 13.7012 18.3712 13.8168 18.5138 13.8168L22.4295 13.7905C22.5721 13.7905 22.6877 13.675 22.6877 13.5323C22.6877 13.3897 22.5721 13.2742 22.4295 13.2742L18.5138 13.3004C18.3712 13.3004 18.2556 13.416 18.2556 13.5586Z" fill="#39393A"/>
<path d="M22.437 14.449L18.5212 14.4757C18.3786 14.4757 18.2631 14.5913 18.2631 14.7339C18.2631 14.8764 18.3786 14.9921 18.5212 14.9921L22.437 14.9653C22.5794 14.9653 22.6951 14.8498 22.6951 14.7072C22.6951 14.5645 22.5794 14.449 22.437 14.449Z" fill="#39393A"/>
<path d="M22.4448 15.6226L18.5291 15.6488V15.6487C18.3864 15.6487 18.2709 15.7644 18.2709 15.9069C18.2709 16.0495 18.3864 16.1651 18.5291 16.1651H18.5312L22.4469 16.1388V16.1389C22.5895 16.1389 22.7051 16.0232 22.7051 15.8808C22.7051 15.8119 22.6776 15.7458 22.6287 15.6974C22.5799 15.6488 22.5136 15.622 22.4448 15.6226V15.6226Z" fill="#39393A"/>
<path d="M22.4522 16.7964L18.5365 16.8231C18.394 16.8231 18.2783 16.9387 18.2783 17.0813C18.2783 17.2238 18.394 17.3395 18.5365 17.3395L22.4522 17.3127C22.5948 17.3127 22.7104 17.1972 22.7104 17.0546C22.7104 16.912 22.5948 16.7964 22.4522 16.7964Z" fill="#39393A"/>
<path d="M22.4604 17.9705L18.5447 17.9967C18.4021 17.9967 18.2865 18.1123 18.2865 18.2549C18.2865 18.3975 18.4021 18.5131 18.5447 18.5131L22.4604 18.4868C22.6029 18.4868 22.7186 18.3713 22.7186 18.2286C22.7186 18.086 22.6029 17.9705 22.4604 17.9705Z" fill="#39393A"/>
<path d="M22.4683 19.1448L18.5526 19.1711C18.41 19.1711 18.2944 19.2866 18.2944 19.4292C18.2944 19.5718 18.41 19.6874 18.5526 19.6874L22.4683 19.6611C22.6109 19.6611 22.7265 19.5456 22.7265 19.403C22.7265 19.2605 22.6109 19.1448 22.4683 19.1448Z" fill="#39393A"/>
<path d="M22.4759 20.3188L18.5602 20.3451C18.4177 20.3451 18.302 20.4607 18.302 20.6033C18.302 20.7458 18.4177 20.8615 18.5602 20.8615L22.4759 20.8352C22.6185 20.8352 22.7341 20.7196 22.7341 20.577C22.7341 20.4344 22.6185 20.3188 22.4759 20.3188Z" fill="#39393A"/>
<path d="M22.4826 21.4932L18.5669 21.5194C18.4244 21.5194 18.3087 21.635 18.3087 21.7776C18.3087 21.9202 18.4244 22.0358 18.5669 22.0358L22.4826 22.0095C22.6252 22.0095 22.7408 21.894 22.7408 21.7513C22.7408 21.6087 22.6252 21.4932 22.4826 21.4932Z" fill="#39393A"/>
<path d="M22.7501 22.9259C22.7501 22.7833 22.6345 22.6677 22.4919 22.6677L18.5762 22.6945C18.4336 22.6945 18.318 22.81 18.318 22.9526C18.318 23.0951 18.4336 23.2108 18.5762 23.2108L22.4919 23.1841C22.6345 23.1841 22.7501 23.0685 22.7501 22.9259Z" fill="#39393A"/>
</svg>
