<svg width="33" height="33" viewBox="0 0 33 33" fill="none" xmlns="http://www.w3.org/2000/svg">
<path d="M28.2875 16.6449H24.2875C23.757 16.6449 23.2483 16.8557 22.8733 17.2307C22.4982 17.6058 22.2875 18.1145 22.2875 18.6449V23.6449C22.2875 24.1754 22.4982 24.6841 22.8733 25.0592C23.2483 25.4342 23.757 25.6449 24.2875 25.6449H26.2875C26.8179 25.6449 27.3266 25.4342 27.7017 25.0592C28.0768 24.6841 28.2875 24.1754 28.2875 23.6449V16.6449ZM28.2875 16.6449C28.2875 15.0606 27.9739 13.492 27.3646 12.0295C26.7553 10.5671 25.8624 9.23973 24.7375 8.12411C23.6126 7.00849 22.2779 6.12667 20.8104 5.52953C19.3429 4.93239 17.7717 4.63175 16.1875 4.64495C14.6043 4.6334 13.0344 4.93527 11.5684 5.53316C10.1024 6.13104 8.76916 7.01313 7.64557 8.12858C6.52199 9.24403 5.63024 10.5708 5.02172 12.0324C4.4132 13.4941 4.09993 15.0617 4.09998 16.6449V23.6449C4.09998 24.1754 4.31069 24.6841 4.68576 25.0592C5.06083 25.4342 5.56954 25.6449 6.09998 25.6449H8.09998C8.63041 25.6449 9.13912 25.4342 9.51419 25.0592C9.88926 24.6841 10.1 24.1754 10.1 23.6449V18.6449C10.1 18.1145 9.88926 17.6058 9.51419 17.2307C9.13912 16.8557 8.63041 16.6449 8.09998 16.6449H4.09998" stroke="#19191A" stroke-width="2" stroke-linecap="round" stroke-linejoin="round"/>
<path d="M28.2875 23.6455V26.6455C28.2875 27.7064 27.866 28.7238 27.1159 29.4739C26.3658 30.2241 25.3483 30.6455 24.2875 30.6455H17.1" stroke="#19191A" stroke-width="2" stroke-linecap="round" stroke-linejoin="round"/>
</svg>
