<svg width="32" height="32" viewBox="0 0 32 32" fill="none" xmlns="http://www.w3.org/2000/svg">
<path d="M20.31 5.33331H11.6873C8.18301 5.33331 5.33203 8.18429 5.33203 11.6886V20.3113C5.33203 23.8157 8.18301 26.6666 11.6873 26.6666H20.31C23.8144 26.6666 26.6654 23.8157 26.6654 20.3113V11.6886C26.6653 8.18429 23.8143 5.33331 20.31 5.33331ZM24.5192 20.3113C24.5192 22.636 22.6347 24.5205 20.31 24.5205H11.6873C9.3627 24.5205 7.47816 22.636 7.47816 20.3113V11.6886C7.47816 9.36394 9.3627 7.47945 11.6873 7.47945H20.31C22.6347 7.47945 24.5192 9.36394 24.5192 11.6886V20.3113Z" fill="#B7B7B7"/>
<path d="M15.998 10.4824C12.9556 10.4824 10.4805 12.9576 10.4805 15.9999C10.4805 19.0423 12.9556 21.5175 15.998 21.5175C19.0404 21.5175 21.5156 19.0423 21.5156 15.9999C21.5156 12.9576 19.0404 10.4824 15.998 10.4824ZM15.998 19.3714C14.136 19.3714 12.6266 17.862 12.6266 16C12.6266 14.138 14.1361 12.6286 15.998 12.6286C17.86 12.6286 19.3695 14.138 19.3695 16C19.3695 17.8619 17.86 19.3714 15.998 19.3714Z" fill="#B7B7B7"/>
<path d="M21.5252 11.846C22.2554 11.846 22.8474 11.254 22.8474 10.5238C22.8474 9.79365 22.2554 9.20172 21.5252 9.20172C20.7951 9.20172 20.2031 9.79365 20.2031 10.5238C20.2031 11.254 20.7951 11.846 21.5252 11.846Z" fill="#B7B7B7"/>
</svg>
