<svg width="26" height="26" viewBox="0 0 26 26" fill="none" xmlns="http://www.w3.org/2000/svg">
<path d="M11.5933 16.5591H14.2747L14.7432 17.0276V21.713L14.2747 22.1822H11.5933L11.1247 21.713V17.0276L11.5933 16.5591ZM22.3643 2.79322C22.3643 1.82674 23.8333 1.82674 23.8333 2.79322C23.8333 8.52638 19.3843 13.2879 13.6682 13.6683V15.2008H14.6642L14.2349 16.2379H11.6331L11.2037 15.2008H12.1985V13.6683C6.48279 13.2875 2.03381 8.52638 2.03381 2.79322C2.03381 1.82674 3.50342 1.82674 3.50342 2.79322C3.50342 8.00056 7.72574 12.2231 12.9333 12.2231C18.1416 12.2231 22.3642 8.00079 22.3642 2.79322H22.3643ZM9.76538 22.103V16.6377L10.8021 17.068V21.673L9.76538 22.103ZM10.9251 21.9688L11.3348 22.3783L10.8803 23.3908L9.88824 22.3985L10.9249 21.9688L10.9251 21.9688ZM11.6294 22.5033H14.2345L14.6639 23.5404H11.1637L11.6294 22.5033ZM14.5298 22.381L14.9424 21.9688L15.9791 22.3985L14.9597 23.4181L14.5298 22.381ZM15.0647 21.6731V17.0681L16.1014 16.6378V22.1031L15.0647 21.6731ZM14.9424 16.7717L14.5298 16.3598L14.9597 15.3231L15.9791 16.3427L14.9424 16.7717ZM9.88854 16.3427L10.908 15.3231L11.3373 16.3598L10.9254 16.7717L9.88873 16.3427L9.88854 16.3427Z" fill="black"/>
</svg>
