<svg width="244" height="44" viewBox="0 0 244 44" fill="none" xmlns="http://www.w3.org/2000/svg">
<path d="M0.245923 35.6455V8.86335H4.91023L14.5774 30.9436H12.5085L22.1381 8.86335H26.7648V35.6455H21.5738L21.5362 17.5525L22.8904 17.891L15.4049 35.6455H11.6058L3.96985 17.891L5.39923 17.5525V35.6455H0.245923ZM48.0771 35.984C44.2905 35.984 41.4192 35.0186 39.4632 33.0877C37.5323 31.1567 36.5668 28.323 36.5668 24.5866V8.86335H42.2844V24.8499C42.2844 26.9814 42.7734 28.6114 43.7513 29.7399C44.7294 30.8684 46.1713 31.4326 48.0771 31.4326C49.9077 31.4326 51.312 30.8684 52.29 29.7399C53.268 28.6114 53.757 26.9814 53.757 24.8499V8.86335H59.5874V24.5866C59.5874 28.298 58.5969 31.1317 56.6158 33.0877C54.6347 35.0186 51.7885 35.984 48.0771 35.984ZM81.5583 35.984C78.8751 35.984 76.5555 35.4198 74.5995 34.2914C72.6435 33.1629 71.1263 31.5705 70.048 29.5142C68.9948 27.4579 68.4682 25.0254 68.4682 22.2168C68.4682 19.4333 68.9948 17.0134 70.048 14.957C71.1263 12.9007 72.6435 11.3209 74.5995 10.2175C76.5555 9.08904 78.8751 8.52481 81.5583 8.52481C84.2416 8.52481 86.5486 9.08904 88.4796 10.2175C90.4356 11.3209 91.9402 12.9007 92.9934 14.957C94.0467 17.0134 94.5733 19.4333 94.5733 22.2168C94.5733 25.0254 94.0467 27.4579 92.9934 29.5142C91.9402 31.5705 90.4356 33.1629 88.4796 34.2914C86.5486 35.4198 84.2416 35.984 81.5583 35.984ZM81.5583 31.4326C83.7651 31.4326 85.508 30.6552 86.7869 29.1004C88.0909 27.5206 88.7429 25.226 88.7429 22.2168C88.7429 19.2076 88.0909 16.9381 86.7869 15.4084C85.508 13.8537 83.7651 13.0763 81.5583 13.0763C79.3265 13.0763 77.5711 13.8537 76.2922 15.4084C75.0133 16.9381 74.3738 19.2076 74.3738 22.2168C74.3738 25.2511 75.0133 27.5457 76.2922 29.1004C77.5711 30.6552 79.3265 31.4326 81.5583 31.4326ZM78.9253 38.2034H84.1538V43.2062H78.9253V38.2034ZM79.151 6.56881H74.8628L79.9033 0.663195H83.1006L88.141 6.56881H83.8529L81.5207 3.33389L79.151 6.56881ZM103.673 35.6455V8.86335H109.541V35.6455H103.673ZM134.596 35.6455V8.86335H139.26L148.927 30.9436H146.859L156.488 8.86335H161.115V35.6455H155.924L155.886 17.5525L157.24 17.891L149.755 35.6455H145.956L138.32 17.891L139.749 17.5525V35.6455H134.596ZM182.427 35.984C178.641 35.984 175.769 35.0186 173.813 33.0877C171.882 31.1567 170.917 28.323 170.917 24.5866V8.86335H176.634V24.8499C176.634 26.9814 177.123 28.6114 178.101 29.7399C179.079 30.8684 180.521 31.4326 182.427 31.4326C184.258 31.4326 185.662 30.8684 186.64 29.7399C187.618 28.6114 188.107 26.9814 188.107 24.8499V8.86335H193.938V24.5866C193.938 28.298 192.947 31.1317 190.966 33.0877C188.985 35.0186 186.139 35.984 182.427 35.984ZM215.908 35.984C213.225 35.984 210.906 35.4198 208.95 34.2914C206.994 33.1629 205.476 31.5705 204.398 29.5142C203.345 27.4579 202.818 25.0254 202.818 22.2168C202.818 19.4333 203.345 17.0134 204.398 14.957C205.476 12.9007 206.994 11.3209 208.95 10.2175C210.906 9.08904 213.225 8.52481 215.908 8.52481C218.592 8.52481 220.899 9.08904 222.83 10.2175C224.786 11.3209 226.29 12.9007 227.344 14.957C228.397 17.0134 228.923 19.4333 228.923 22.2168C228.923 25.0254 228.397 27.4579 227.344 29.5142C226.29 31.5705 224.786 33.1629 222.83 34.2914C220.899 35.4198 218.592 35.984 215.908 35.984ZM215.908 31.4326C218.115 31.4326 219.858 30.6552 221.137 29.1004C222.441 27.5206 223.093 25.226 223.093 22.2168C223.093 19.2076 222.441 16.9381 221.137 15.4084C219.858 13.8537 218.115 13.0763 215.908 13.0763C213.677 13.0763 211.921 13.8537 210.642 15.4084C209.363 16.9381 208.724 19.2076 208.724 22.2168C208.724 25.2511 209.363 27.5457 210.642 29.1004C211.921 30.6552 213.677 31.4326 215.908 31.4326ZM213.275 38.2034H218.504V43.2062H213.275V38.2034ZM213.501 6.56881H209.213L214.253 0.663195H217.451L222.491 6.56881H218.203L215.871 3.33389L213.501 6.56881ZM238.023 35.6455V8.86335H243.891V35.6455H238.023Z" fill="currentColor"/>
</svg>
