<svg width="24" height="28" viewBox="0 0 24 28" fill="none" xmlns="http://www.w3.org/2000/svg">
<path d="M6.33942 26.5275H10.0315C10.1294 26.5275 10.2233 26.4822 10.2926 26.4014C10.3618 26.3206 10.4007 26.211 10.4007 26.0968V24.3738H5.97021V26.0968C5.97021 26.211 6.00911 26.3206 6.07834 26.4014C6.14757 26.4822 6.24152 26.5275 6.33942 26.5275Z" fill="#39393A"/>
<path d="M8.92409 7.57498C8.92409 8.05072 8.59345 8.43646 8.18568 8.43646C7.7779 8.43646 7.44727 8.05072 7.44727 7.57498C7.44727 7.09924 7.7779 6.7135 8.18568 6.7135C8.59345 6.7135 8.92409 7.09924 8.92409 7.57498Z" fill="#39393A"/>
<path d="M5.94239 23.5124H10.4281L11.816 2.87034C11.824 2.75035 11.7888 2.63189 11.7186 2.54382C11.6485 2.45556 11.5499 2.40556 11.4468 2.40595H4.92258C4.8194 2.40556 4.72101 2.45556 4.65079 2.54382C4.58074 2.6319 4.5453 2.75035 4.55338 2.87034L5.94239 23.5124ZM6.35775 10.316L5.83576 9.70699L6.35826 9.09741L6.88025 9.7064L6.35775 10.316ZM8.5545 11.0207H7.81609V10.1592H8.5545V11.0207ZM10.0128 10.316L9.49034 9.7064L10.0123 9.09741L10.5348 9.70699L10.0128 10.316ZM10.4005 6.71333H11.1389V7.57481H10.4005V6.71333ZM9.75176 4.52906L10.2738 5.13805L9.75126 5.74704L9.22926 5.13805L9.75176 4.52906ZM7.81607 4.12889H8.55448V4.99037H7.81607V4.12889ZM8.18528 5.85185C8.57689 5.85185 8.95255 6.03338 9.2296 6.35643C9.5065 6.67968 9.6621 7.11793 9.6621 7.57481C9.6621 8.03169 9.5065 8.46996 9.2296 8.79319C8.95253 9.11624 8.57689 9.29777 8.18528 9.29777C7.79366 9.29777 7.418 9.11624 7.14095 8.79319C6.86405 8.46994 6.70845 8.03169 6.70845 7.57481C6.70845 7.11793 6.86405 6.67966 7.14095 6.35643C7.41802 6.03338 7.79366 5.85185 8.18528 5.85185ZM6.35773 4.83363L6.88023 5.44321L6.35824 6.05221L5.83574 5.44262L6.35773 4.83363ZM5.97006 7.14407V8.00555H5.23165V7.14407H5.97006Z" fill="#39393A"/>
<path d="M15.2002 17.482H18.1538V23.0816H15.2002V17.482Z" fill="#39393A"/>
<path d="M19.631 13.6054H18.5234V12.7439H14.8313V13.6054H13.7237C13.5198 13.6054 13.3545 13.7982 13.3545 14.0361V26.0968C13.3545 26.2111 13.3934 26.3207 13.4626 26.4014C13.5318 26.4822 13.6258 26.5276 13.7237 26.5276H19.631C19.7289 26.5276 19.8228 26.4822 19.8921 26.4014C19.9613 26.3207 20.0002 26.2111 20.0002 26.0968V14.0361C20.0002 13.9219 19.9613 13.8123 19.8921 13.7315C19.8228 13.6508 19.7289 13.6054 19.631 13.6054ZM18.8926 23.5124C18.8926 23.6266 18.8537 23.7362 18.7845 23.817C18.7152 23.8977 18.6213 23.9431 18.5234 23.9431H14.8313C14.6274 23.9431 14.4621 23.7503 14.4621 23.5124V17.0513C14.4621 16.8134 14.6274 16.6206 14.8313 16.6206H18.5234C18.6213 16.6206 18.7152 16.6659 18.7845 16.7467C18.8537 16.8275 18.8926 16.9371 18.8926 17.0513V23.5124Z" fill="#39393A"/>
<path d="M18.5232 8.86721H17.7848V7.14425C17.7848 6.68255 17.5736 6.25604 17.231 6.02512C16.8883 5.79436 16.466 5.79436 16.1233 6.02512C15.7807 6.25606 15.5695 6.68255 15.5695 7.14425V8.86721H14.8311C14.6272 8.86721 14.4619 9.06008 14.4619 9.29795V11.4517C14.4619 11.5659 14.5008 11.6755 14.57 11.7562C14.6393 11.837 14.7332 11.8824 14.8311 11.8824H18.5232C18.6211 11.8824 18.715 11.837 18.7843 11.7562C18.8535 11.6755 18.8924 11.5659 18.8924 11.4517V9.29795C18.8924 9.18373 18.8535 9.07412 18.7843 8.99336C18.715 8.91259 18.6211 8.86721 18.5232 8.86721Z" fill="#39393A"/>
</svg>
