<svg width="26" height="26" viewBox="0 0 26 26" fill="none" xmlns="http://www.w3.org/2000/svg">
<path d="M12.4414 12.8967C12.4414 15.2614 10.5246 17.1785 8.15967 17.1785C5.79497 17.1785 3.87793 15.2614 3.87793 12.8967C3.87793 10.532 5.79497 8.61499 8.15967 8.61499C10.5246 8.61499 12.4414 10.532 12.4414 12.8967Z" fill="#39393A"/>
<path d="M11.1181 19.7476C11.0199 20.2291 10.759 20.662 10.3793 20.9738C9.99952 21.2858 9.52411 21.4574 9.03286 21.4603H7.32016C6.8274 21.4593 6.3499 21.2884 5.96855 20.9765C5.58702 20.6645 5.32497 20.2304 5.22632 19.7476H1.75391C1.85751 20.4661 2.21859 21.1227 2.76988 21.5953C3.32116 22.0678 4.02514 22.3241 4.75112 22.3166H11.6019C12.3227 22.3168 13.0195 22.0572 13.5644 21.5853C14.1096 21.1136 14.4661 20.4612 14.5691 19.7476L11.1181 19.7476ZM8.17656 18.8912C9.76633 18.8912 11.2911 18.2597 12.4153 17.1355C13.5394 16.0113 14.171 14.4866 14.171 12.8968C14.171 11.307 13.5394 9.78222 12.4153 8.65805C11.2911 7.53389 9.76633 6.90234 8.17656 6.90234C6.58679 6.90234 5.062 7.53389 3.93784 8.65805C2.81367 9.78222 2.18213 11.307 2.18213 12.8968C2.18213 14.4866 2.81367 16.0113 3.93784 17.1355C5.062 18.2597 6.58679 18.8912 8.17656 18.8912ZM8.17656 7.75869C9.53928 7.75869 10.8462 8.3 11.8097 9.26361C12.7733 10.2272 13.3146 11.5341 13.3146 12.8968C13.3146 14.2595 12.7733 15.5664 11.8097 16.5299C10.8461 17.4935 9.53928 18.0349 8.17656 18.0349C6.81384 18.0349 5.50696 17.4936 4.5434 16.5299C3.57983 15.5663 3.03848 14.2595 3.03848 12.8968C3.03848 11.5341 3.57979 10.2272 4.5434 9.26361C5.50701 8.30005 6.81384 7.75869 8.17656 7.75869ZM7.32021 20.6039H9.03291C9.29937 20.6049 9.55954 20.5231 9.77744 20.3696C9.99535 20.2163 10.1601 19.9987 10.249 19.7476H6.09132C6.18096 20.0008 6.34765 20.2197 6.56804 20.3734C6.78844 20.5271 7.05146 20.6075 7.32021 20.6039L7.32021 20.6039Z" fill="#39393A"/>
<path d="M22.7347 13.753H17.5966C17.3602 13.753 17.1685 13.9447 17.1685 14.1812V21.8883C17.1685 22.0019 17.2136 22.1108 17.2939 22.1911C17.3741 22.2714 17.4831 22.3165 17.5966 22.3165H22.7347C22.8483 22.3165 22.9572 22.2714 23.0375 22.1911C23.1178 22.1108 23.1629 22.0019 23.1629 21.8883V14.1812C23.1629 14.0677 23.1178 13.9587 23.0375 13.8784C22.9572 13.7981 22.8483 13.753 22.7347 13.753ZM22.3065 16.7502C22.3065 16.8638 22.2614 16.9727 22.1811 17.053C22.1009 17.1333 21.9919 17.1784 21.8784 17.1784H18.453C18.2165 17.1784 18.0248 16.9867 18.0248 16.7502V15.0375C18.0248 14.8011 18.2165 14.6094 18.453 14.6094H21.8784C21.9919 14.6094 22.1009 14.6545 22.1811 14.7348C22.2614 14.815 22.3065 14.924 22.3065 15.0375V16.7502ZM21.8784 10.3276H18.453C18.2165 10.3276 18.0248 10.5194 18.0248 10.7558V12.8967H22.3065V10.7558C22.3065 10.6423 22.2614 10.5333 22.1811 10.453C22.1009 10.3727 21.9919 10.3276 21.8784 10.3276ZM21.1633 4.37186C21.0312 4.30553 20.8722 4.32598 20.7609 4.42309L19.0482 5.81468C18.924 5.92153 18.8561 6.07942 18.864 6.24285V9.47138H21.433V4.83428C21.4433 4.64007 21.3372 4.45848 21.1633 4.37189V4.37186Z" fill="#39393A"/>
</svg>
