<svg width="26" height="26" viewBox="0 0 26 26" fill="none" xmlns="http://www.w3.org/2000/svg">
<path d="M19.9723 5.77172C17.9003 2.03302 15.3909 3.54438 15.3909 3.54438C15.3909 3.54438 13.7275 1.31445 9.87678 2.52873C6.02639 3.74317 4.5641 7.81795 4.6259 9.06547C4.68416 10.234 5.31632 13.0988 6.20821 13.9147C6.38121 15.2641 6.73461 17.8319 7.10059 19.3839C7.61414 21.563 9.64289 24.1705 12.6728 24.1705C15.7028 24.1705 17.7317 21.5629 18.2451 19.3839C18.6754 17.5584 19.0881 14.3291 19.2113 13.328C19.5667 12.8156 21.8907 9.23361 19.9719 5.77156L19.9723 5.77172ZM11.2055 19.4348L10.063 17.8982C10.2141 17.7836 10.3992 17.6889 10.513 17.6683C10.7748 17.6209 11.0993 17.6923 11.424 17.7269C11.9012 17.7775 12.4867 17.892 12.6879 17.5801C12.807 17.677 12.8849 17.7824 13.0408 17.8149C13.301 17.8703 13.6422 17.7877 13.9514 17.756C14.2705 17.724 14.6304 17.645 14.8922 17.6976C14.9774 17.7145 15.1547 17.8172 15.2152 17.8444C15.2247 17.8487 15.2778 17.8792 15.2891 17.8864C15.2897 17.8869 15.2902 17.8874 15.2909 17.8878L14.1403 19.4348L11.2055 19.4349L11.2055 19.4348ZM15.9714 16.9729C15.9566 16.9552 15.9415 16.9378 15.932 16.9259C15.9042 16.8904 15.8877 16.876 15.8622 16.8455C15.717 16.6665 15.4754 16.4359 15.3039 16.316C15.2952 16.31 15.1973 16.2239 15.1566 16.1983C14.8017 15.9753 14.4591 15.7844 14.0104 15.6988C13.8123 15.6611 13.5809 15.6141 13.3928 15.6396C13.1298 15.6758 12.9645 15.8571 12.7169 15.963C12.6195 15.8831 12.5004 15.8423 12.3939 15.787C12.281 15.7289 12.1544 15.6299 12.0409 15.6108C11.8951 15.5858 11.7472 15.6235 11.6003 15.6399C11.137 15.6927 10.7781 15.8549 10.4834 16.0221C10.4234 16.0557 10.1752 16.1914 10.1603 16.1987C10.1506 16.2025 10.0532 16.3089 10.0426 16.3158C9.83387 16.4607 9.657 16.6696 9.51328 16.8453C9.46499 16.9042 9.43168 16.9564 9.40143 17.0087L6.52776 13.1441C6.67727 12.0792 6.89324 10.3262 6.85961 9.28759C6.85961 9.28759 13.8269 10.4618 16.1266 7.84013C16.1266 7.84013 17.0726 11.4807 18.8376 13.1182L15.9714 16.9729Z" fill="black"/>
</svg>
