<svg width="7" height="10" viewBox="0 0 7 10" fill="none" xmlns="http://www.w3.org/2000/svg">
<path d="M1.04054 0.159839L0.710698 0.487403C0.607689 0.590493 0.550941 0.727648 0.550941 0.874234C0.550941 1.02074 0.607689 1.15806 0.710698 1.26115L4.44748 4.99776L0.706551 8.73869C0.603542 8.84162 0.546875 8.97893 0.546875 9.12544C0.546875 9.27195 0.603542 9.40934 0.706551 9.51235L1.03436 9.84C1.24753 10.0533 1.59477 10.0533 1.80794 9.84L6.27798 5.38598C6.38091 5.28305 6.45343 5.1459 6.45343 4.99809L6.45343 4.99638C6.45343 4.8498 6.38083 4.71264 6.27798 4.60971L1.82006 0.159839C1.71713 0.0567485 1.57583 0.000163168 1.42932 7.71459e-08C1.28274 6.43309e-08 1.14338 0.0567484 1.04054 0.159839Z" fill="currentColor"/>
</svg>
