<svg width="26" height="26" viewBox="0 0 26 26" fill="none" xmlns="http://www.w3.org/2000/svg">
<path d="M14.7981 7.875H20.3101V11.8911H14.7981V7.875Z" fill="#39393A"/>
<path d="M12.9546 6.48781V4.12818C12.1543 2.78203 10.0228 1.81348 7.51394 1.81348C4.32432 1.81732 1.73315 3.38032 1.73315 5.3099C1.73315 7.23931 4.32449 8.80251 7.51779 8.80251C10.0268 8.80235 12.1546 7.83396 12.9546 6.48781Z" fill="#39393A"/>
<path d="M20.4144 5.54557C20.463 5.54557 20.5116 5.53806 20.5565 5.51569L22.0298 4.90988C22.2205 4.83142 22.3103 4.6144 22.2318 4.42009C22.1534 4.22561 21.9364 4.13964 21.7457 4.2181L20.2723 4.82391C20.0817 4.90237 19.9919 5.11939 20.0703 5.3137C20.1266 5.4596 20.2687 5.54557 20.4144 5.54557V5.54557Z" fill="#39393A"/>
<path d="M20.2721 6.54755L21.7455 7.15337C21.7941 7.17573 21.8426 7.18325 21.8875 7.18325C22.0334 7.18325 22.1755 7.09728 22.2316 6.95137C22.31 6.76074 22.2204 6.54005 22.0296 6.46159L20.5562 5.85577C20.3656 5.77732 20.1486 5.86696 20.0701 6.05776C19.9916 6.25208 20.0815 6.46909 20.2721 6.54755V6.54755Z" fill="#39393A"/>
<path d="M24.1836 13.3456C23.3048 13.3344 22.4261 13.3232 21.5473 13.3157C20.9004 13.3082 20.3021 13.0576 19.8571 12.6389H15.2541C14.809 13.0578 14.2071 13.312 13.5639 13.3157C12.6851 13.3232 11.8027 13.3344 10.924 13.3456C10.5202 13.3492 10.1912 13.6858 10.1912 14.0897V23.1167C10.1912 23.5243 10.5165 23.8085 10.924 23.7636C15.3325 23.2624 19.7826 23.2624 24.1911 23.7636C24.5913 23.8083 24.9166 23.5242 24.9166 23.1165V14.0896C24.9166 13.6859 24.5876 13.3531 24.1838 13.3456H24.1836ZM23.5665 15.4209L22.7888 20.02C22.729 20.3716 22.4224 20.6295 22.0671 20.6295H13.0402C12.6813 20.6295 12.3783 20.3714 12.3185 20.02L11.5408 15.4209C11.466 14.9721 11.81 14.5645 12.2625 14.5645H22.8445C23.2969 14.5647 23.641 14.9721 23.5662 15.4209H23.5665Z" fill="#39393A"/>
<path d="M15.4409 6.06514V4.55069C14.9174 4.37124 14.4313 4.08325 14.4313 4.08325H13.7058V6.52886H14.4313C14.4277 6.53253 14.9174 6.24474 15.4409 6.0651V6.06514Z" fill="#39393A"/>
<path d="M16.7687 7.12714H18.3355V6.40914H18.9188V4.20679H16.1891V6.40914H16.7687L16.7687 7.12714Z" fill="#39393A"/>
</svg>
