<svg width="28" height="28" viewBox="0 0 28 28" fill="none" xmlns="http://www.w3.org/2000/svg">
<path d="M25.1747 12.5322L9.74616 3.11439C9.48916 2.95153 9.19236 2.8624 8.88816 2.85673C8.58396 2.85107 8.28404 2.92908 8.02116 3.08225C7.75438 3.22861 7.53199 3.44418 7.37738 3.70626C7.22277 3.96834 7.14166 4.26725 7.14259 4.57153V23.4287C7.14166 23.733 7.22277 24.0319 7.37738 24.294C7.53199 24.556 7.75438 24.7716 8.02116 24.918C8.28404 25.0711 8.58396 25.1491 8.88816 25.1435C9.19236 25.1378 9.48916 25.0487 9.74616 24.8858L25.1747 15.468C25.4276 15.3154 25.6368 15.1001 25.782 14.8429C25.9272 14.5858 26.0035 14.2954 26.0035 14.0001C26.0035 13.7048 25.9272 13.4144 25.782 13.1573C25.6368 12.9001 25.4276 12.6848 25.1747 12.5322Z" fill="white"/>
</svg>
