<svg width="23" height="27" viewBox="0 0 23 27" fill="none" xmlns="http://www.w3.org/2000/svg">
<path d="M21.0375 12.2871L3.03751 1.29962C2.73768 1.10962 2.39141 1.00564 2.03651 0.999024C1.68161 0.992411 1.33171 1.08342 1.02501 1.26212C0.713773 1.43288 0.454317 1.68437 0.27394 1.99014C0.0935623 2.2959 -0.00106682 2.64462 9.07295e-06 2.99962V24.9996C-0.00106682 25.3546 0.0935623 25.7034 0.27394 26.0091C0.454317 26.3149 0.713773 26.5664 1.02501 26.7371C1.33171 26.9158 1.68161 27.0068 2.03651 27.0002C2.39141 26.9936 2.73768 26.8896 3.03751 26.6996L21.0375 15.7121C21.3325 15.5341 21.5766 15.283 21.746 14.9829C21.9154 14.6829 22.0044 14.3442 22.0044 13.9996C22.0044 13.6551 21.9154 13.3164 21.746 13.0163C21.5766 12.7163 21.3325 12.4651 21.0375 12.2871Z" fill="white"/>
</svg>
