<svg width="32" height="32" viewBox="0 0 32 32" fill="none" xmlns="http://www.w3.org/2000/svg">
<path d="M31 14.9875V14.9625C31.002 14.9328 30.9978 14.903 30.9875 14.875V14.8375C30.9875 14.8125 30.975 14.7875 30.975 14.7625V14.7375L30.95 14.6375H30.9375L29.1875 10.2875C29.0481 9.90679 28.7942 9.57861 28.4606 9.34807C28.1271 9.11752 27.7304 8.99593 27.325 9H23V8C23 7.73478 22.8946 7.48043 22.7071 7.29289C22.5196 7.10536 22.2652 7 22 7H3C2.46957 7 1.96086 7.21071 1.58579 7.58579C1.21071 7.96086 1 8.46957 1 9V23C1 23.5304 1.21071 24.0391 1.58579 24.4142C1.96086 24.7893 2.46957 25 3 25H4.625C4.8453 25.8604 5.3457 26.623 6.04731 27.1676C6.74892 27.7122 7.61183 28.0078 8.5 28.0078C9.38817 28.0078 10.2511 27.7122 10.9527 27.1676C11.6543 26.623 12.1547 25.8604 12.375 25H19.625C19.8453 25.8604 20.3457 26.623 21.0473 27.1676C21.7489 27.7122 22.6118 28.0078 23.5 28.0078C24.3882 28.0078 25.2511 27.7122 25.9527 27.1676C26.6543 26.623 27.1547 25.8604 27.375 25H29C29.5304 25 30.0391 24.7893 30.4142 24.4142C30.7893 24.0391 31 23.5304 31 23V15V14.9875ZM23 11H27.325L28.525 14H23V11ZM3 9H21V17H3V9ZM8.5 26C8.10444 26 7.71776 25.8827 7.38886 25.6629C7.05996 25.4432 6.80362 25.1308 6.65224 24.7654C6.50087 24.3999 6.46126 23.9978 6.53843 23.6098C6.6156 23.2219 6.80608 22.8655 7.08579 22.5858C7.36549 22.3061 7.72186 22.1156 8.10982 22.0384C8.49778 21.9613 8.89991 22.0009 9.26537 22.1522C9.63082 22.3036 9.94318 22.56 10.1629 22.8889C10.3827 23.2178 10.5 23.6044 10.5 24C10.5 24.5304 10.2893 25.0391 9.91421 25.4142C9.53914 25.7893 9.03043 26 8.5 26ZM23.5 26C23.1044 26 22.7178 25.8827 22.3889 25.6629C22.06 25.4432 21.8036 25.1308 21.6522 24.7654C21.5009 24.3999 21.4613 23.9978 21.5384 23.6098C21.6156 23.2219 21.8061 22.8655 22.0858 22.5858C22.3655 22.3061 22.7219 22.1156 23.1098 22.0384C23.4978 21.9613 23.8999 22.0009 24.2654 22.1522C24.6308 22.3036 24.9432 22.56 25.1629 22.8889C25.3827 23.2178 25.5 23.6044 25.5 24C25.5 24.5304 25.2893 25.0391 24.9142 25.4142C24.5391 25.7893 24.0304 26 23.5 26Z" fill="#19191A"/>
</svg>
