<svg width="26" height="26" viewBox="0 0 26 26" fill="none" xmlns="http://www.w3.org/2000/svg">
<path d="M21.7435 18.713L15.1044 16.1207C14.7017 15.9981 13.275 16.0808 12.3923 15.3865C10.9222 14.2298 7.63624 9.6736 6.19373 7.71766C5.48422 6.75559 4.95892 5.75231 4.68201 5.98291C4.68185 5.98307 4.68185 5.98338 4.68154 5.98354C2.67534 8.14879 1.58893 10.2934 3.37036 12.1519C4.28922 13.1105 4.04212 17.4818 3.9967 18.9621C3.98679 19.2972 4.8247 19.2897 4.81843 19.0531C4.79548 18.2471 4.79721 17.436 4.79721 16.6301C4.79721 15.9337 4.79736 15.068 4.93788 14.3849C5.28933 12.6711 7.04672 16.325 8.17635 18.4553C8.97385 19.9594 10.1403 20.2764 11.5252 20.2673C14.7896 20.2445 18.0581 20.1706 21.3182 19.9831C22.7593 19.9003 23.4564 19.3813 21.7439 18.7126L21.7435 18.713Z" fill="#39393A"/>
</svg>
