<svg width="21" height="20" viewBox="0 0 21 20" fill="none" xmlns="http://www.w3.org/2000/svg">
<path d="M17.541 3.125H3.79102C3.4595 3.125 3.14155 3.2567 2.90713 3.49112C2.67271 3.72554 2.54102 4.04348 2.54102 4.375V15.625C2.54102 15.9565 2.67271 16.2745 2.90713 16.5089C3.14155 16.7433 3.4595 16.875 3.79102 16.875H17.541C17.8725 16.875 18.1905 16.7433 18.4249 16.5089C18.6593 16.2745 18.791 15.9565 18.791 15.625V4.375C18.791 4.04348 18.6593 3.72554 18.4249 3.49112C18.1905 3.2567 17.8725 3.125 17.541 3.125ZM10.666 12.5C9.67145 12.5 8.71763 12.1049 8.01437 11.4017C7.3111 10.6984 6.91602 9.74456 6.91602 8.75C6.91602 8.58424 6.98186 8.42527 7.09907 8.30806C7.21628 8.19085 7.37526 8.125 7.54102 8.125C7.70678 8.125 7.86575 8.19085 7.98296 8.30806C8.10017 8.42527 8.16602 8.58424 8.16602 8.75C8.16602 9.41304 8.42941 10.0489 8.89825 10.5178C9.36709 10.9866 10.003 11.25 10.666 11.25C11.3291 11.25 11.9649 10.9866 12.4338 10.5178C12.9026 10.0489 13.166 9.41304 13.166 8.75C13.166 8.58424 13.2319 8.42527 13.3491 8.30806C13.4663 8.19085 13.6253 8.125 13.791 8.125C13.9568 8.125 14.1157 8.19085 14.233 8.30806C14.3502 8.42527 14.416 8.58424 14.416 8.75C14.416 9.74456 14.0209 10.6984 13.3177 11.4017C12.6144 12.1049 11.6606 12.5 10.666 12.5ZM3.79102 5.625V4.375H17.541V5.625H3.79102Z" fill="currentColor"/>
</svg>
