<svg width="26" height="26" viewBox="0 0 26 26" fill="none" xmlns="http://www.w3.org/2000/svg">
<path d="M6.86762 24.6327H10.8674C10.9734 24.6327 11.0752 24.5905 11.1502 24.5155C11.2252 24.4406 11.2673 24.3388 11.2673 24.2327V22.6328H6.46765V24.2327C6.46765 24.3388 6.50979 24.4406 6.58479 24.5155C6.65978 24.5905 6.76156 24.6327 6.86762 24.6327Z" fill="#39393A"/>
<path d="M9.66739 7.03408C9.66739 7.47583 9.30921 7.83402 8.86745 7.83402C8.42569 7.83402 8.0675 7.47583 8.0675 7.03408C8.0675 6.59232 8.42569 6.23413 8.86745 6.23413C9.30921 6.23413 9.66739 6.59232 9.66739 7.03408Z" fill="#39393A"/>
<path d="M6.43751 21.833H11.2971L12.8005 2.66535C12.8093 2.55393 12.7711 2.44394 12.695 2.36216C12.6191 2.2802 12.5124 2.23378 12.4006 2.23413H5.33272C5.22094 2.23378 5.11434 2.2802 5.03827 2.36216C4.96238 2.44394 4.924 2.55393 4.93274 2.66535L6.43751 21.833ZM6.88748 9.57917L6.32199 9.01368L6.88803 8.44763L7.45352 9.01313L6.88748 9.57917ZM9.2673 10.2336H8.46735V9.43362H9.2673V10.2336ZM10.8472 9.57917L10.2811 9.01313L10.8466 8.44763L11.4127 9.01368L10.8472 9.57917ZM11.2671 6.23384H12.0671V7.03379H11.2671V6.23384ZM10.5643 4.20559L11.1298 4.77108L10.5638 5.33658L9.99829 4.77108L10.5643 4.20559ZM8.46733 3.83401H9.26727V4.63396H8.46733V3.83401ZM8.8673 5.4339C9.29155 5.4339 9.69851 5.60246 9.99865 5.90244C10.2986 6.2026 10.4672 6.60955 10.4672 7.03379C10.4672 7.45804 10.2986 7.865 9.99865 8.16514C9.69849 8.46512 9.29155 8.63368 8.8673 8.63368C8.44306 8.63368 8.03609 8.46512 7.73595 8.16514C7.43597 7.86498 7.26741 7.45804 7.26741 7.03379C7.26741 6.60955 7.43597 6.20258 7.73595 5.90244C8.03611 5.60246 8.44306 5.4339 8.8673 5.4339ZM6.88746 4.48841L7.4535 5.05445L6.88801 5.61995L6.32197 5.0539L6.88746 4.48841ZM6.46749 6.63382V7.43376H5.66754V6.63382H6.46749Z" fill="#39393A"/>
<path d="M16.467 16.2334H19.6668V21.433H16.467V16.2334Z" fill="#39393A"/>
<path d="M21.2667 12.6337H20.0668V11.8337H16.0671V12.6337H14.8671C14.6463 12.6337 14.4672 12.8128 14.4672 13.0337V24.2329C14.4672 24.339 14.5093 24.4407 14.5843 24.5157C14.6593 24.5907 14.7611 24.6329 14.8671 24.6329H21.2667C21.3728 24.6329 21.4745 24.5907 21.5495 24.5157C21.6245 24.4407 21.6667 24.339 21.6667 24.2329V13.0337C21.6667 12.9276 21.6245 12.8258 21.5495 12.7508C21.4745 12.6758 21.3728 12.6337 21.2667 12.6337ZM20.4668 21.8331C20.4668 21.9391 20.4246 22.0409 20.3496 22.1159C20.2746 22.1909 20.1728 22.233 20.0668 22.233H16.0671C15.8462 22.233 15.6671 22.0539 15.6671 21.8331V15.8335C15.6671 15.6126 15.8462 15.4335 16.0671 15.4335H20.0668C20.1728 15.4335 20.2746 15.4756 20.3496 15.5506C20.4246 15.6256 20.4668 15.7274 20.4668 15.8335V21.8331Z" fill="#39393A"/>
<path d="M20.0668 8.23387H19.2669V6.63398C19.2669 6.20526 19.0381 5.80922 18.6669 5.59479C18.2957 5.38051 17.8382 5.38051 17.467 5.59479C17.0958 5.80923 16.867 6.20526 16.867 6.63398V8.23387H16.0671C15.8462 8.23387 15.6671 8.41297 15.6671 8.63385V10.6337C15.6671 10.7398 15.7093 10.8416 15.7842 10.9165C15.8592 10.9915 15.961 11.0337 16.0671 11.0337H20.0668C20.1729 11.0337 20.2747 10.9915 20.3496 10.9165C20.4246 10.8416 20.4668 10.7398 20.4668 10.6337V8.63385C20.4668 8.52778 20.4246 8.426 20.3496 8.35101C20.2747 8.27602 20.1729 8.23387 20.0668 8.23387Z" fill="#39393A"/>
</svg>
