<svg width="26" height="26" viewBox="0 0 26 26" fill="none" xmlns="http://www.w3.org/2000/svg">
<path fill-rule="evenodd" clip-rule="evenodd" d="M9.31467 13.1781L9.31177 13.2194C9.12364 15.797 7.98646 18.1137 6.24748 19.8201C6.24459 19.824 6.24073 19.8269 6.23687 19.8307C6.07654 19.9872 5.91153 20.1397 5.74077 20.2856C7.37517 21.6905 9.45573 22.5926 11.7387 22.7501V13.1782H9.31446L9.31467 13.1781ZM15.6054 13.2194L15.6025 13.1781H13.1783V22.75C15.4615 22.5925 17.5409 21.6904 19.1762 20.2854C19.0054 20.1386 18.8402 19.9869 18.6801 19.8306C18.6762 19.8267 18.6724 19.8239 18.6695 19.82C16.9305 18.1137 15.7933 15.7971 15.6052 13.2192L15.6054 13.2194ZM22.75 13.1781C22.5896 15.5052 21.6549 17.6216 20.204 19.2701C20.0255 19.1203 19.8528 18.9648 19.6867 18.8017C19.6838 18.7988 19.6809 18.7959 19.677 18.7921C18.1962 17.3391 17.2221 15.3699 17.0456 13.178L22.75 13.1781ZM7.87103 13.1781C7.69446 15.3699 6.72035 17.3391 5.23958 18.7921C5.23572 18.796 5.23283 18.7989 5.22994 18.8018C5.06397 18.9649 4.8911 19.1204 4.71261 19.2701C3.26054 17.6205 2.32678 15.5054 2.16663 13.1781L7.87103 13.1781ZM4.71275 5.64656C4.89124 5.79629 5.06396 5.95181 5.23007 6.11489C5.23297 6.11779 5.23586 6.12068 5.23972 6.12453C6.72053 7.57753 7.69464 9.54674 7.87117 11.7386H2.16695C2.32728 9.41146 3.26201 7.29506 4.71293 5.64662L4.71275 5.64656ZM11.7385 2.16686C9.45529 2.3243 7.37587 3.22642 5.74057 4.63138C5.91135 4.77822 6.07652 4.92988 6.23667 5.08622C6.24053 5.09008 6.24438 5.09297 6.24728 5.09683C7.98626 6.80318 9.12345 9.11972 9.31157 11.6976L9.31447 11.7389H11.7387V2.16697L11.7385 2.16686ZM13.178 2.16686V11.7388H15.6022L15.6051 11.6975C15.7932 9.11985 16.9304 6.80315 18.6694 5.09671C18.6723 5.09286 18.6761 5.08997 18.68 5.08611C18.8403 4.92963 19.0053 4.77716 19.1761 4.63127C17.5417 3.22631 15.4611 2.32419 13.1782 2.16675L13.178 2.16686ZM20.2037 5.64656C21.6558 7.2962 22.5895 9.41128 22.7497 11.7386H17.0455C17.222 9.54668 18.1961 7.57756 19.6769 6.12448L19.6865 6.11484C19.8525 5.95177 20.0254 5.79625 20.2039 5.6465L20.2037 5.64656Z" fill="#39393A"/>
</svg>
