<svg width="15" height="14" viewBox="0 0 15 14" fill="none" xmlns="http://www.w3.org/2000/svg">
<path d="M4.35737 7.99653L4.02803 8.37274L4.35737 7.99653L1.39812 5.40598L5.33228 5.03431C5.59111 5.00985 5.81862 4.84751 5.92387 4.60685L7.5 1.00327L9.07613 4.60685L9.53423 4.40649L9.07613 4.60685C9.18139 4.84751 9.40889 5.00985 9.66772 5.03431L13.6019 5.40598L10.6426 7.99653L10.972 8.37274L10.6426 7.99653C10.4456 8.16897 10.3574 8.43564 10.4152 8.69273L11.2747 12.5189L7.86414 10.5225C7.63931 10.3909 7.36069 10.3909 7.13586 10.5225L7.38843 10.954L7.13585 10.5225L3.72526 12.5189L4.58483 8.69273C4.64258 8.43564 4.55436 8.16897 4.35737 7.99653Z" stroke="currentColor"/>
</svg>
