<svg width="18" height="18" viewBox="0 0 18 18" fill="none" xmlns="http://www.w3.org/2000/svg">
<path d="M8.74114 0.277822C8.83937 0.0532266 9.16063 0.0532258 9.25886 0.277821L11.6154 5.66578C11.6563 5.75926 11.7452 5.8233 11.8475 5.83297L17.7442 6.39005C17.99 6.41327 18.0893 6.71619 17.9042 6.87822L13.464 10.7652C13.3869 10.8327 13.353 10.9363 13.3753 11.0358L14.6631 16.768C14.7168 17.007 14.4569 17.1942 14.2443 17.0697L9.14344 14.0841C9.05495 14.0323 8.94505 14.0323 8.85656 14.0841L3.75575 17.0697C3.54313 17.1942 3.28322 17.007 3.3369 16.768L4.6247 11.0358C4.64704 10.9363 4.61308 10.8327 4.53604 10.7652L0.0957784 6.87822C-0.0893124 6.71619 0.00996069 6.41327 0.255763 6.39005L6.15247 5.83297C6.25477 5.8233 6.34368 5.75926 6.38457 5.66578L8.74114 0.277822Z" fill="currentColor"/>
</svg>
