<svg width="17" height="16" viewBox="0 0 17 16" fill="none" xmlns="http://www.w3.org/2000/svg">
<path d="M8.2699 0.24641C8.35722 0.04677 8.64278 0.0467693 8.7301 0.246409L10.8248 5.03571C10.8612 5.1188 10.9402 5.17573 11.0311 5.18432L16.2727 5.6795C16.4911 5.70014 16.5794 5.9694 16.4149 6.11343L12.468 9.56857C12.3995 9.62851 12.3693 9.72062 12.3892 9.80902L13.5339 14.9044C13.5816 15.1168 13.3506 15.2832 13.1616 15.1725L8.62751 12.5186C8.54884 12.4726 8.45116 12.4726 8.37249 12.5186L3.83844 15.1725C3.64944 15.2832 3.41842 15.1168 3.46614 14.9044L4.61084 9.80902C4.6307 9.72062 4.60051 9.62851 4.53204 9.56857L0.585136 6.11343C0.420611 5.96941 0.508854 5.70014 0.727345 5.6795L5.96886 5.18432C6.0598 5.17573 6.13883 5.1188 6.17517 5.03571L8.2699 0.24641Z" fill="currentColor"/>
</svg>
