<svg width="15" height="14" viewBox="0 0 15 14" fill="none" xmlns="http://www.w3.org/2000/svg">
<path d="M7.29866 0.215853C7.37507 0.0411679 7.62493 0.0411673 7.70134 0.215852L9.53423 4.40649C9.56602 4.47919 9.63518 4.529 9.71475 4.53652L14.3011 4.96981C14.4923 4.98787 14.5695 5.22347 14.4255 5.3495L10.972 8.37274C10.9121 8.42519 10.8856 8.50579 10.903 8.58314L11.9046 13.0416C11.9464 13.2274 11.7442 13.373 11.5789 13.2762L7.61157 10.954C7.54274 10.9138 7.45726 10.9138 7.38843 10.954L3.42114 13.2762C3.25576 13.373 3.05362 13.2274 3.09537 13.0416L4.09699 8.58314C4.11436 8.50579 4.08795 8.42519 4.02803 8.37274L0.574494 5.3495C0.430535 5.22347 0.507747 4.98787 0.698927 4.96981L5.28525 4.53652C5.36482 4.529 5.43397 4.47919 5.46577 4.40649L7.29866 0.215853Z" fill="currentColor"/>
</svg>
