<svg width="33" height="33" viewBox="0 0 33 33" fill="none" xmlns="http://www.w3.org/2000/svg">
<path d="M15.6375 3.88289L5.54999 5.89539L3.53749 15.9829C3.50596 16.144 3.51455 16.3103 3.56251 16.4673C3.61047 16.6242 3.69632 16.767 3.81249 16.8829L16.8625 29.9329C16.9545 30.027 17.0643 30.1018 17.1856 30.1528C17.3069 30.2039 17.4372 30.2302 17.5687 30.2302C17.7003 30.2302 17.8306 30.2039 17.9519 30.1528C18.0732 30.1018 18.183 30.027 18.275 29.9329L29.5875 18.6204C29.6816 18.5284 29.7564 18.4186 29.8074 18.2973C29.8585 18.176 29.8848 18.0457 29.8848 17.9141C29.8848 17.7826 29.8585 17.6523 29.8074 17.531C29.7564 17.4097 29.6816 17.2999 29.5875 17.2079L16.5375 4.15789C16.4216 4.04172 16.2788 3.95587 16.1219 3.90791C15.9649 3.85995 15.7986 3.85136 15.6375 3.88289V3.88289Z" stroke="#19191A" stroke-width="2" stroke-linecap="round" stroke-linejoin="round"/>
<path d="M10.8 12.6455C11.6284 12.6455 12.3 11.9739 12.3 11.1455C12.3 10.3171 11.6284 9.64551 10.8 9.64551C9.97156 9.64551 9.29999 10.3171 9.29999 11.1455C9.29999 11.9739 9.97156 12.6455 10.8 12.6455Z" fill="#19191A"/>
</svg>
