<svg width="32" height="32" viewBox="0 0 32 32" fill="none" xmlns="http://www.w3.org/2000/svg">
<path fill-rule="evenodd" clip-rule="evenodd" d="M13.7286 13.3803V12.4187C13.3948 12.3715 13.0583 12.3469 12.7213 12.3453C8.59945 12.3453 5.24609 15.6993 5.24609 19.8211C5.24609 22.3495 6.50974 24.5877 8.4374 25.9412C7.14667 24.5608 6.42909 22.7413 6.43013 20.8516C6.43013 16.7884 9.68806 13.4752 13.7286 13.3803Z" fill="#EAECEE"/>
<path fill-rule="evenodd" clip-rule="evenodd" d="M13.904 24.2656C15.743 24.2656 17.2432 22.8027 17.3115 20.9795L17.3177 4.70392H20.2911C20.2276 4.3641 20.1955 4.01916 20.1951 3.67346H16.1343L16.1275 19.9496C16.0598 21.7722 14.559 23.2346 12.7205 23.2346C12.1686 23.2348 11.6249 23.1004 11.1367 22.8428C11.4519 23.2825 11.8673 23.641 12.3485 23.8884C12.8297 24.1358 13.3629 24.2651 13.904 24.2656ZM25.8447 10.2286V9.32409C24.7519 9.32512 23.6826 9.00725 22.768 8.4094C23.5699 9.33277 24.6497 9.97108 25.8452 10.2286" fill="#B7B7B7"/>
<path fill-rule="evenodd" clip-rule="evenodd" d="M22.7706 8.40871C21.8742 7.38303 21.3805 6.06691 21.381 4.70471H20.293C20.4339 5.45763 20.7261 6.17411 21.152 6.81079C21.5778 7.44746 22.1285 7.99108 22.7706 8.40871ZM12.7224 16.4075C11.8173 16.4086 10.9496 16.7686 10.3096 17.4086C9.66966 18.0485 9.30967 18.9162 9.30859 19.8213C9.30921 20.4439 9.47993 21.0545 9.80237 21.5871C10.1248 22.1197 10.5866 22.554 11.138 22.8432C10.7182 22.2643 10.4921 21.5674 10.4921 20.8523C10.493 19.9472 10.8529 19.0793 11.4929 18.4392C12.1329 17.7991 13.0007 17.439 13.9059 17.438C14.2576 17.438 14.5947 17.4961 14.9132 17.5961V13.45C14.5795 13.4027 14.2429 13.3782 13.9059 13.3766C13.8465 13.3766 13.7884 13.38 13.7297 13.3811V16.5656C13.4039 16.4619 13.0642 16.4086 12.7224 16.4075Z" fill="#EAECEE"/>
<path fill-rule="evenodd" clip-rule="evenodd" d="M25.8463 10.2279V13.3842C23.7402 13.3842 21.7894 12.7106 20.196 11.5672V19.8205C20.196 23.9423 16.8432 27.2957 12.7214 27.2957C11.1285 27.2957 9.65147 26.7932 8.4375 25.9406C9.13545 26.6932 9.98131 27.2936 10.9221 27.7041C11.863 28.1146 12.8784 28.3264 13.9048 28.3261C18.0267 28.3261 21.38 24.9728 21.38 20.8515V12.5983C23.0261 13.7819 25.0029 14.4176 27.0303 14.4152V10.3533C26.6238 10.3533 26.2285 10.3092 25.8463 10.2274" fill="#EAECEE"/>
<path fill-rule="evenodd" clip-rule="evenodd" d="M20.1954 19.8211V11.5678C21.8414 12.7516 23.8183 13.3873 25.8458 13.3848V10.2285C24.6504 9.97069 23.5708 9.33218 22.7691 8.40871C22.127 7.99107 21.5763 7.44746 21.1504 6.81078C20.7246 6.17411 20.4323 5.45763 20.2914 4.70471H17.3181L17.3119 20.9803C17.2436 22.8029 15.7433 24.2659 13.9043 24.2659C13.3632 24.2653 12.83 24.136 12.3488 23.8886C11.8677 23.6412 11.4523 23.2828 11.1371 22.843C10.5856 22.5539 10.1236 22.1196 9.80106 21.587C9.47852 21.0544 9.30769 20.4438 9.30708 19.8211C9.3081 18.916 9.66809 18.0483 10.3081 17.4084C10.948 16.7684 11.8158 16.4084 12.7209 16.4073C13.0721 16.4073 13.4091 16.4649 13.7281 16.5654V13.3809C9.68761 13.4757 6.42969 16.789 6.42969 20.8521C6.42969 22.817 7.19307 24.6058 8.43696 25.9417C9.69094 26.8245 11.1873 27.2976 12.7209 27.2963C16.8427 27.2963 20.1954 23.9429 20.1954 19.8211Z" fill="#B7B7B7"/>
</svg>
