<svg width="49" height="48" viewBox="0 0 49 48" fill="none" xmlns="http://www.w3.org/2000/svg">
<path d="M24.166 15V24" stroke="black" stroke-width="3" stroke-linecap="round" stroke-linejoin="round"/>
<path d="M31.966 28.5L24.166 24" stroke="black" stroke-width="3" stroke-linecap="round" stroke-linejoin="round"/>
<path d="M13.6289 18.6936H6.12891V11.1936" stroke="black" stroke-width="3" stroke-linecap="round" stroke-linejoin="round"/>
<path d="M12.5039 35.6625C14.8109 37.9714 17.7509 39.5442 20.952 40.182C24.153 40.8197 27.4713 40.4938 30.4871 39.2453C33.5029 37.9969 36.0806 35.882 37.8942 33.1683C39.7079 30.4546 40.6759 27.264 40.6759 24C40.6759 20.736 39.7079 17.5454 37.8942 14.8317C36.0806 12.118 33.5029 10.0032 30.4871 8.75471C27.4713 7.50626 24.153 7.18029 20.952 7.81804C17.7509 8.45578 14.8109 10.0286 12.5039 12.3375L6.12891 18.6938" stroke="black" stroke-width="3" stroke-linecap="round" stroke-linejoin="round"/>
</svg>
