<svg width="49" height="48" viewBox="0 0 49 48" fill="none" xmlns="http://www.w3.org/2000/svg">
<path d="M29.826 29.5H29.8335L20.2314 12.8683L10.6292 29.5H10.6371C9.8309 31.0181 9.37207 32.7486 9.37207 34.5873C9.37207 40.5852 14.2337 45.4475 20.2314 45.4475C26.2293 45.4475 31.0916 40.5849 31.0916 34.5873C31.0916 32.7486 30.6331 31.0181 29.8259 29.5H29.826ZM18.1936 42.6381C18.0403 42.6552 17.8544 42.6634 17.6442 42.6446C17.4311 42.6367 17.1874 42.6233 16.9305 42.5673C16.8009 42.5427 16.665 42.517 16.5255 42.4844C16.3894 42.442 16.2482 42.3986 16.1035 42.3532C15.8085 42.2683 15.5239 42.1206 15.2193 41.9825C14.9325 41.8164 14.6236 41.6559 14.3493 41.4388C14.0579 41.2421 13.8 40.9973 13.5355 40.7605C13.2938 40.5016 13.0405 40.2513 12.8382 39.9668C12.6185 39.6967 12.4405 39.4027 12.2708 39.1204C12.1139 38.83 11.9675 38.5471 11.859 38.2655C11.7494 37.9846 11.6537 37.7182 11.5945 37.462C11.5238 37.2126 11.4823 36.9728 11.4567 36.7584C11.4211 36.5475 11.4086 36.365 11.4096 36.2159C11.4044 35.9169 11.4172 35.7416 11.4172 35.7416C11.4172 35.7416 11.5225 35.8827 11.6784 36.1383C11.7514 36.2696 11.8596 36.4159 11.9655 36.5817C12.0698 36.7482 12.1974 36.9294 12.3386 37.1274C12.4688 37.3287 12.628 37.5343 12.7875 37.7527C12.9441 37.9725 13.1293 38.1896 13.3059 38.4185C13.4974 38.6382 13.6826 38.8711 13.8911 39.0905C14.0881 39.3191 14.3108 39.529 14.5227 39.7484C14.7463 39.9553 14.9641 40.1691 15.1957 40.3592C15.4187 40.5618 15.6588 40.7312 15.8808 40.9171C16.1193 41.0733 16.3351 41.2605 16.5647 41.3937C16.7867 41.5437 17.0018 41.6822 17.2097 41.7963C17.413 41.9246 17.6074 42.0292 17.7837 42.1216C17.959 42.216 18.1143 42.3045 18.2479 42.3621C18.512 42.4894 18.6676 42.5795 18.6676 42.5795C18.6666 42.5795 18.4982 42.6117 18.1936 42.6381L18.1936 42.6381Z" fill="black"/>
<path d="M39.5574 13.0812H39.562L33.6083 2.76923L27.6543 13.0812H27.6589C27.1586 14.0223 26.874 15.0953 26.874 16.2354C26.874 19.954 29.8887 22.9693 33.6073 22.9693C37.3266 22.9693 40.3406 19.9543 40.3406 16.2354C40.3423 15.095 40.0577 14.0223 39.5574 13.0812H39.5574ZM32.3445 21.2269C32.2498 21.2378 32.1344 21.2424 32.0038 21.2312C31.8719 21.2259 31.7202 21.2181 31.5613 21.1832C31.4811 21.1681 31.3969 21.1519 31.31 21.1319C31.2255 21.1056 31.138 21.0786 31.0482 21.0506C30.8653 20.9977 30.689 20.9062 30.4999 20.8204C30.3222 20.7174 30.1305 20.6178 29.9604 20.4832C29.7798 20.3615 29.62 20.2099 29.4558 20.0625C29.3058 19.9017 29.1489 19.7471 29.0233 19.5708C28.8871 19.4033 28.7766 19.2208 28.6717 19.0458C28.574 18.8655 28.4835 18.6902 28.4164 18.5159C28.3486 18.3415 28.2891 18.1764 28.2523 18.0175C28.2085 17.8629 28.1829 17.7142 28.1671 17.5813C28.145 17.4508 28.1375 17.3376 28.1378 17.2452C28.1345 17.06 28.1424 16.9508 28.1424 16.9508C28.1424 16.9508 28.2075 17.0386 28.3042 17.1965C28.3496 17.2781 28.4164 17.3685 28.4819 17.4715C28.5463 17.5748 28.6256 17.6869 28.7134 17.8096C28.794 17.9346 28.893 18.0619 28.9917 18.1971C29.0888 18.3333 29.2036 18.4678 29.3134 18.6096C29.4322 18.7458 29.547 18.8902 29.6759 19.0264C29.7979 19.1685 29.9361 19.2984 30.0673 19.4342C30.2058 19.5625 30.3407 19.6951 30.4848 19.8128C30.6229 19.9388 30.7719 20.0438 30.9097 20.1589C31.0578 20.2556 31.1913 20.3717 31.3337 20.4546C31.4716 20.5474 31.6048 20.6332 31.7341 20.7046C31.86 20.7842 31.9808 20.849 32.09 20.9065C32.1988 20.9651 32.2952 21.02 32.3775 21.0556C32.5409 21.1342 32.6376 21.1904 32.6376 21.1904C32.638 21.1904 32.5337 21.2108 32.3446 21.2269L32.3445 21.2269Z" fill="black"/>
</svg>
