<svg width="32" height="32" viewBox="0 0 32 32" fill="none" xmlns="http://www.w3.org/2000/svg">
<path d="M26.2235 10.4985C25.9781 9.51497 25.2552 8.74052 24.3373 8.47768C22.6738 8 16.0026 8 16.0026 8C16.0026 8 9.33145 8 7.66782 8.47768C6.74988 8.74052 6.02697 9.51497 5.78163 10.4985C5.33594 12.2809 5.33594 16 5.33594 16C5.33594 16 5.33594 19.719 5.78163 21.5015C6.02697 22.485 6.74988 23.2595 7.66782 23.5225C9.33145 24 16.0026 24 16.0026 24C16.0026 24 22.6738 24 24.3373 23.5225C25.2552 23.2595 25.9781 22.485 26.2235 21.5015C26.6693 19.719 26.6693 16 26.6693 16C26.6693 16 26.6693 12.2809 26.2235 10.4985Z" fill="#19191A"/>
<path d="M13.3359 20.0003V13.3336L20.0026 16.6671L13.3359 20.0003Z" fill="white"/>
</svg>
