<svg width="55" height="32" viewBox="0 0 55 32" fill="none" xmlns="http://www.w3.org/2000/svg">
<path d="M12.4716 20.5636C14.4569 20.5636 16.3238 20.5504 18.1775 20.5636C19.2162 20.5768 19.7815 21.0123 19.8867 21.8437C20.005 22.8862 19.4002 23.5857 18.2696 23.5989C16.1397 23.6252 14.023 23.6121 11.8932 23.6121C11.2752 23.6121 10.6705 23.6384 10.0525 23.5989C9.29 23.5593 8.54061 23.4009 8.17249 22.6091C7.80437 21.8173 8.06731 21.1046 8.56691 20.458C10.5916 17.8714 12.6294 15.2716 14.6672 12.685C14.7855 12.5267 14.9039 12.3683 15.0222 12.2231C14.8907 11.9988 14.7067 12.1044 14.5489 12.0912C13.129 12.078 11.6959 12.0912 10.276 12.078C9.94737 12.078 9.61869 12.0384 9.30315 11.9724C8.55376 11.8008 8.09361 11.0486 8.26452 10.3096C8.38285 9.8081 8.77726 9.39899 9.27686 9.28022C9.59239 9.20104 9.92107 9.16145 10.2498 9.16145C12.59 9.14825 14.9433 9.14825 17.2835 9.16145C17.7042 9.14825 18.1118 9.20104 18.5194 9.30661C19.4134 9.61014 19.7946 10.4415 19.4397 11.3125C19.1241 12.0648 18.6245 12.7114 18.1249 13.3581C16.4027 15.5619 14.6804 17.7526 12.9581 19.9301C12.8135 20.1017 12.682 20.2732 12.4716 20.5636Z" fill="#B7B7B7"/>
<path d="M27.7224 13.6221C28.038 13.213 28.3667 12.8303 28.9057 12.7247C29.9443 12.5135 30.9172 13.1866 30.9304 14.2423C30.9698 16.8817 30.9567 19.5211 30.9304 22.1604C30.9304 22.8467 30.4834 23.4537 29.8391 23.6517C29.1818 23.9024 28.4324 23.7045 27.9985 23.137C27.775 22.8599 27.683 22.8071 27.3675 23.0578C26.1711 24.0344 24.8169 24.206 23.3576 23.7309C21.0173 22.9655 20.0576 21.1311 19.7947 18.9008C19.5186 16.4858 20.3205 14.4271 22.4767 13.1602C24.2647 12.0912 26.079 12.1836 27.7224 13.6221ZM23.0683 18.4389C23.0946 19.0196 23.2787 19.5739 23.6205 20.0357C24.3304 20.9859 25.6846 21.1839 26.6444 20.4712C26.8021 20.3525 26.9468 20.2073 27.0782 20.0357C27.8145 19.0328 27.8145 17.3832 27.0782 16.3802C26.7101 15.8655 26.1316 15.562 25.5137 15.5488C24.0675 15.4564 23.0552 16.5782 23.0683 18.4389ZM36.8335 18.5181C36.7283 15.1265 38.9502 12.5927 42.1055 12.5003C45.4581 12.3948 47.9035 14.6514 48.0086 17.9506C48.1138 21.2895 46.076 23.6517 42.9338 23.9684C39.5024 24.3115 36.7809 21.8173 36.8335 18.5181ZM40.1334 18.2014C40.1071 18.8612 40.3043 19.5079 40.6988 20.0489C41.4219 20.9991 42.776 21.1839 43.7226 20.4448C43.8672 20.3393 43.9856 20.2073 44.1039 20.0753C44.8664 19.0724 44.8664 17.3832 44.117 16.3802C43.7489 15.8787 43.1704 15.562 42.5525 15.5488C41.1326 15.4696 40.1334 16.5518 40.1334 18.2014ZM35.6765 15.8919C35.6765 17.9374 35.6897 19.983 35.6765 22.0285C35.6897 22.9655 34.9534 23.7441 34.02 23.7705C33.8622 23.7705 33.6913 23.7573 33.5335 23.7177C32.8762 23.5461 32.3766 22.8467 32.3766 22.0153V11.5238C32.3766 10.9035 32.3634 10.2965 32.3766 9.6762C32.3897 8.66004 33.0339 8.00019 34.0068 8.00019C35.006 7.987 35.6765 8.64684 35.6765 9.70259C35.6897 11.7613 35.6765 13.8332 35.6765 15.8919Z" fill="#B7B7B7"/>
</svg>
